<svg width="2586" height="1575" viewBox="0 0 2586 1575" fill="none" xmlns="http://www.w3.org/2000/svg">
<path d="M348.612 1300.48C346.843 1300.48 342.081 1297.97 334.325 1292.93L317.18 1282.93C315.139 1281.57 314.119 1278.58 314.119 1273.95C314.119 1254.9 339.427 1182.31 390.045 1056.17L397.188 1039.64C395.691 1039.78 389.909 1046.79 379.84 1060.67C374.941 1067.47 369.839 1074.34 364.532 1081.28C351.469 1098.29 342.149 1106.79 336.57 1106.79C335.754 1106.79 335.005 1106.59 334.325 1106.18C328.474 1102.78 323.372 1099.99 319.017 1097.81C311.67 1094.41 306.363 1091.14 303.097 1088.01C299.832 1084.89 298.199 1079.65 298.199 1072.3C298.199 1065.63 299.356 1056.04 301.669 1043.52C299.492 1046.65 288.946 1074.27 270.033 1126.39C264.862 1139.99 259.488 1153.87 253.909 1168.02C240.574 1201.9 231.866 1218.84 227.784 1218.84C227.24 1218.84 226.763 1218.57 226.355 1218.03C217.647 1205.37 212.068 1197.69 209.619 1194.96C207.85 1192.65 206.966 1191.22 206.966 1190.68C209.279 1181.29 227.24 1132.58 260.848 1044.54C283.708 988.753 299.492 959.635 308.2 957.186C310.513 956.641 316.092 952.627 324.936 945.144C327.93 942.15 330.107 940.653 331.468 940.653C333.1 940.653 334.053 942.694 334.325 946.776C335.005 951.539 336.298 953.988 338.203 954.124C340.788 954.396 342.081 954.872 342.081 955.553C342.081 956.233 341.741 957.118 341.06 958.206C340.516 959.159 339.904 960.519 339.223 962.288C338.543 964.057 338.203 966.234 338.203 968.819C338.203 970.452 338.407 972.221 338.815 974.126C340.04 980.657 340.652 988.073 340.652 996.373C340.652 1008.89 339.496 1025.08 337.182 1044.95C336.638 1049.85 336.366 1053.05 336.366 1054.54C340.04 1050.87 345.074 1044.68 351.469 1035.97C377.186 999.23 412.02 961.948 455.969 924.121C460.052 920.039 462.841 917.998 464.338 917.998C466.107 917.998 467.535 920.311 468.624 924.938C469.848 929.428 470.937 937.932 471.889 950.45C471.889 959.159 468.76 971.064 462.501 986.168C456.378 1001.27 448.758 1018.69 439.641 1038.42C426.307 1066.86 408.89 1110.06 387.391 1168.02C366.029 1225.99 353.715 1269.19 350.449 1297.63C350.449 1299.53 349.837 1300.48 348.612 1300.48ZM480.96 1264.15H480.143C474.02 1264.15 463.407 1259.19 448.303 1249.25C445.582 1247.62 444.221 1245.31 444.221 1242.32C444.221 1234.02 449.596 1215.65 460.345 1187.21C490.416 1112.64 521.372 1045.36 553.212 985.352C553.348 985.352 553.416 984.943 553.416 984.127L522.596 993.312C496.063 1001.34 479.531 1005.35 473 1005.35C466.605 1005.35 461.434 1003.65 457.488 1000.25C453.542 996.713 448.508 990.522 442.384 981.678C440.48 979.229 439.527 977.8 439.527 977.392C439.527 975.759 443.405 973.718 451.161 971.269C456.876 969.772 463.203 967.459 470.142 964.329C477.218 961.2 482.048 959.635 484.633 959.635C485.178 959.635 485.586 959.771 485.858 960.043C486.13 960.315 486.334 961.54 486.47 963.717C489.192 963.445 502.662 959.839 526.883 952.899C638.866 921.332 707.172 905.548 731.8 905.548C734.658 905.548 737.379 905.752 739.965 906.16C742.686 906.568 744.115 907.997 744.251 910.446C741.121 940.517 736.835 955.553 731.392 955.553C729.759 955.553 728.059 954.056 726.29 951.062C725.201 949.43 723.977 948.205 722.616 947.389C721.799 946.98 720.439 946.776 718.534 946.776C712.411 946.776 699.348 948.749 679.346 952.695C663.154 955.825 647.507 959.295 632.403 963.104C625.6 965.009 618.388 966.846 610.768 968.615C608.999 969.023 607.979 970.316 607.707 972.493L606.89 975.351V974.33C606.346 974.466 602.128 981.678 594.236 995.965C563.077 1053.11 531.169 1121.9 498.512 1202.31C489.94 1225.17 485.654 1237.89 485.654 1240.48C485.654 1242.11 485.858 1244.15 486.266 1246.6C486.811 1250.55 487.083 1253.2 487.083 1254.56C487.083 1260.55 485.042 1263.75 480.96 1264.15ZM669.729 1274.36H669.525C668.709 1274.36 667.96 1273.95 667.28 1273.13C663.334 1267.15 659.864 1262.18 656.871 1258.24C651.156 1250.89 648.298 1245.99 648.298 1243.54V1243.13C648.298 1239.73 651.564 1236.94 658.095 1234.76C663.674 1232.72 683.268 1227.62 716.877 1219.46V1219.25C716.877 1213.4 724.769 1191.9 740.552 1154.76C745.315 1144.14 764.772 1102.23 798.925 1029.03C835.8 950.11 854.713 910.582 855.666 910.446C858.251 910.582 860.768 910.65 863.217 910.65H867.095C871.586 910.378 876.416 909.902 881.587 909.222C883.355 909.086 884.92 909.018 886.281 909.018C887.778 909.018 889.274 909.154 890.771 909.426C892.404 909.562 893.288 910.786 893.424 913.1V913.508C893.424 916.637 891.588 922.352 887.914 930.652C884.24 938.952 878.049 951.811 869.34 969.228C851.652 1005.15 827.227 1056.79 796.068 1124.14C773.073 1173.81 761.575 1201.84 761.575 1208.23V1208.43C761.575 1208.98 761.779 1209.25 762.187 1209.25H762.595L771.372 1208.03C806.885 1201.36 833.419 1197.69 850.971 1197C853.557 1196.87 855.938 1196.8 858.115 1196.8C871.041 1196.8 877.709 1198.84 878.117 1202.92L877.913 1204.76C877.505 1206.12 877.096 1207.89 876.688 1210.07C871.109 1231.57 866.075 1243.34 861.585 1245.38C861.312 1245.38 860.972 1245.04 860.564 1244.36C860.156 1243.68 858.523 1242.59 855.666 1241.09C851.039 1238.64 843.828 1237.42 834.031 1237.42C832.262 1237.42 830.357 1237.49 828.316 1237.62C797.973 1238.85 753.003 1247.96 693.405 1264.97C691.636 1265.65 690.411 1266.88 689.731 1268.64C688.915 1270.96 686.738 1272.45 683.2 1273.13L669.729 1274.36ZM895.555 1171.9C900.182 1171.9 907.597 1166.12 917.802 1154.55C928.007 1142.99 938.28 1128.43 948.622 1110.87C958.963 1093.19 967.195 1074.82 973.318 1055.77C973.454 1055.22 973.522 1054.47 973.522 1053.52C973.522 1051.21 973.114 1047.94 972.297 1043.72C971.481 1039.51 970.461 1035.7 969.236 1032.29C968.011 1028.89 966.855 1027.19 965.766 1027.19L965.154 1027.4C960.255 1031.34 957.806 1034.13 957.806 1035.76C957.806 1036.72 958.759 1037.74 960.664 1038.83C963.521 1040.6 964.95 1043.25 964.95 1046.79C964.95 1048.28 964.678 1049.3 964.133 1049.85C963.589 1050.39 960.391 1051.41 954.541 1052.91C948.145 1054.27 944.54 1055.15 943.723 1055.56C942.907 1055.56 941.546 1056.86 939.641 1059.44C936.784 1063.11 935.355 1065.56 935.355 1066.79C935.355 1067.74 935.627 1068.69 936.171 1069.65C936.716 1070.46 936.988 1071.07 936.988 1071.48C936.58 1072.3 936.171 1072.71 935.763 1072.71L934.335 1072.5C932.838 1072.5 931.001 1074 928.824 1076.99C926.102 1080.53 921.68 1088.42 915.557 1100.67C899.637 1133.33 891.677 1154.96 891.677 1165.57C891.677 1169.79 892.97 1171.9 895.555 1171.9ZM883.717 1213.54C878.003 1213.54 872.968 1212.38 868.614 1210.07C858.953 1204.9 854.123 1194.22 854.123 1178.02C854.123 1165.78 856.436 1151.42 861.062 1134.96C865.552 1118.49 871.539 1101.69 879.023 1084.54C886.643 1067.4 895.079 1051.55 904.332 1036.99C913.584 1022.29 923.041 1010.39 932.702 1001.27C942.499 992.019 951.683 987.393 960.255 987.393C964.61 987.393 968.692 988.753 972.502 991.475C984.339 999.639 993.388 1006.51 999.647 1012.09C1005.91 1017.67 1009.78 1023.79 1011.28 1030.46C1011.28 1051.96 1008.36 1072.09 1002.5 1090.87C996.654 1109.51 988.966 1126.39 979.441 1141.49C970.052 1156.59 959.711 1169.52 948.418 1180.27C937.124 1191.02 925.762 1199.25 914.333 1204.96C903.039 1210.68 892.834 1213.54 883.717 1213.54ZM967.285 1237.83C965.244 1237.83 964.223 1237.35 964.223 1236.4C964.223 1234.49 965.856 1229.93 969.122 1222.72L976.673 1203.54C977.354 1201.77 978.442 1199.93 979.939 1198.03C981.436 1195.98 982.932 1194.96 984.429 1194.96C984.973 1194.96 985.586 1195.3 986.266 1195.98C986.81 1196.53 987.967 1196.8 989.736 1196.8C995.587 1196.8 1005.59 1192.92 1019.74 1185.17C1034.03 1177.41 1048.86 1168.02 1064.23 1157C1079.74 1145.84 1093.08 1134.75 1104.24 1123.73C1104.78 1123.19 1105.05 1122.64 1105.05 1122.1C1105.05 1119.92 1101.86 1118.09 1095.46 1116.59C1092.19 1116.04 1082.6 1115.77 1066.68 1115.77C1047.22 1115.77 1033.82 1114.68 1026.47 1112.51C1019.13 1110.19 1015.45 1106.11 1015.45 1100.26C1015.45 1095.36 1018.31 1086.45 1024.02 1073.52L1029.74 1059.24C1034.23 1048.9 1042.73 1037.6 1055.25 1025.36C1067.91 1013.11 1081.11 1002.22 1094.85 992.699C1112.26 980.589 1123.97 974.534 1129.95 974.534C1131.59 974.534 1132.95 975.078 1134.04 976.167C1135.26 977.119 1136.62 978.412 1138.12 980.045C1140.16 983.038 1143.76 986.644 1148.94 990.862C1155.87 996.169 1159.34 999.639 1159.34 1001.27C1159.34 1002.09 1159.07 1002.97 1158.53 1003.92C1155.13 1009.64 1150.3 1013.72 1144.04 1016.17C1137.78 1018.48 1131.59 1020.18 1125.46 1021.27C1119.48 1022.36 1115.12 1023.79 1112.4 1025.56C1096.62 1037.81 1084.03 1048.9 1074.64 1058.83C1065.39 1068.76 1060.76 1074.88 1060.76 1077.2C1060.76 1077.88 1061.1 1078.22 1061.78 1078.22C1083.42 1078.22 1097.3 1078.35 1103.42 1078.63C1109.54 1078.9 1113.9 1079.78 1116.48 1081.28C1119.2 1082.78 1121.99 1085.23 1124.85 1088.63C1128.12 1092.44 1134.04 1098.02 1142.61 1105.36C1146.96 1109.17 1149.14 1113.6 1149.14 1118.63C1149.14 1132.1 1134.85 1149.79 1106.28 1171.7C1074.85 1195.78 1046.54 1212.79 1021.37 1222.72C995.247 1232.79 977.218 1237.83 967.285 1237.83ZM1319.54 1113.94C1334.92 1109.04 1346.34 1105.7 1353.83 1103.93C1360.22 1102.44 1364.92 1101.01 1367.91 1099.65C1370.91 1098.15 1373.29 1095.84 1375.06 1092.71C1376.82 1089.44 1378.93 1084.2 1381.38 1076.99C1387.1 1060.53 1402.74 1026.17 1428.33 973.922C1428.87 973.378 1429.14 972.765 1429.14 972.085L1428.94 971.269C1390.57 1007.73 1353.96 1055.15 1319.13 1113.53L1319.54 1113.94ZM1247.29 1264.56C1244.97 1264.56 1243.21 1262.05 1241.98 1257.01C1240.62 1252.11 1239.06 1244.42 1237.29 1233.95C1236.47 1228.64 1235.99 1225.24 1235.86 1223.74C1235.86 1218.84 1237.15 1212.86 1239.74 1205.78C1246.81 1186.73 1250.35 1176.39 1250.35 1174.76C1250.35 1173.81 1250.08 1173.12 1249.53 1172.72C1221.77 1168.09 1207.9 1164.42 1207.9 1161.7C1207.9 1160.88 1208.64 1159.93 1210.14 1158.84L1223.61 1148.02C1247.02 1135.09 1261.03 1128.63 1265.66 1128.63C1267.15 1128.63 1268.04 1129.38 1268.31 1130.88C1268.31 1131.83 1268.45 1132.51 1268.72 1132.92C1282.19 1111.83 1296.61 1089.58 1311.99 1066.18C1379.48 965.486 1425.26 915.141 1449.35 915.141C1450.71 915.141 1452 915.345 1453.23 915.753C1464.93 918.746 1473.5 920.243 1478.94 920.243C1481.8 920.379 1483.84 920.651 1485.07 921.06C1486.29 921.332 1486.9 922.284 1486.9 923.917C1486.9 925.414 1486.49 927.591 1485.68 930.448L1485.88 931.265C1485.88 933.714 1483.98 939.089 1480.17 947.389C1476.49 955.553 1471.8 965.622 1466.08 977.596C1454.93 1000.18 1442.07 1027.67 1427.51 1060.05C1413.09 1092.3 1405.4 1116.72 1404.45 1133.33C1404.45 1135.77 1403.97 1137 1403.02 1137L1400.77 1136.79C1399.96 1136.79 1399.34 1137.41 1398.94 1138.63C1394.17 1156.73 1391.79 1169.18 1391.79 1175.98C1391.79 1178.98 1392.06 1181.22 1392.61 1182.72C1393.15 1184.08 1393.83 1184.96 1394.65 1185.37C1395.47 1185.78 1396.28 1185.98 1397.1 1185.98L1399.55 1185.78C1399.96 1185.78 1400.16 1185.98 1400.16 1186.39C1400.16 1186.8 1399.75 1187.68 1398.94 1189.04C1395.67 1194.22 1392.81 1198.91 1390.36 1203.13C1386.55 1209.52 1383.36 1214.56 1380.77 1218.23C1378.32 1221.91 1376.21 1223.74 1374.44 1223.74C1373.35 1223.74 1372.4 1222.93 1371.59 1221.29C1366.69 1212.58 1362.4 1206.39 1358.73 1202.72C1356.14 1199.86 1354.03 1197.07 1352.4 1194.35C1350.9 1191.63 1350.15 1187.82 1350.15 1182.92C1350.15 1174.76 1352.74 1161.08 1357.91 1141.9C1357.91 1141.35 1357.37 1141.08 1356.28 1141.08C1351.79 1141.08 1340.09 1144.55 1321.17 1151.49C1303.48 1158.02 1293.96 1162.17 1292.6 1163.94C1278.45 1199.45 1271.37 1220.54 1271.37 1227.21C1271.37 1230.48 1272.39 1232.11 1274.43 1232.11C1275.39 1232.11 1275.86 1232.25 1275.86 1232.52C1275.86 1232.79 1275.39 1233.54 1274.43 1234.76C1264.77 1247.28 1258.31 1255.38 1255.04 1259.05C1251.78 1262.73 1249.19 1264.56 1247.29 1264.56ZM1422.29 1229.25C1421.2 1229.25 1420.46 1228.3 1420.05 1226.4C1419.5 1224.49 1418.62 1220.14 1417.39 1213.33C1416.58 1208.57 1416.17 1205.17 1416.17 1203.13C1416.17 1192.65 1421.95 1173.6 1433.52 1145.98C1444.95 1118.22 1455.29 1094.48 1464.54 1074.75C1473.93 1055.02 1482.71 1038.21 1490.87 1024.33C1499.03 1010.32 1504.34 1003.31 1506.79 1003.31C1514.55 1005.9 1521.49 1007.19 1527.61 1007.19C1529.24 1007.19 1530.6 1006.99 1531.69 1006.58C1532.1 1007.8 1533.26 1008.42 1535.16 1008.42C1537.2 1008.42 1538.22 1009.44 1538.22 1011.48C1538.22 1013.52 1539.17 1014.74 1541.08 1015.15C1542.3 1015.56 1542.92 1017.87 1542.92 1022.09C1542.92 1024.54 1542.51 1029.23 1541.69 1036.17C1541.01 1043.11 1540.33 1049.58 1539.65 1055.56C1538.97 1061.41 1536.93 1071.07 1533.53 1084.54C1530.13 1098.02 1528.09 1109.24 1527.4 1118.22C1532.3 1109.79 1544.07 1087.4 1562.71 1051.07C1585.71 1005.9 1597.75 979.637 1598.84 972.289C1598.98 971.201 1599.45 970.18 1600.27 969.228C1601.22 968.275 1602.24 967.799 1603.33 967.799C1603.87 967.799 1604.42 968.003 1604.96 968.411C1618.57 980.385 1626.53 987.529 1628.84 989.842C1631.56 992.699 1632.93 995.216 1632.93 997.394C1632.93 999.435 1632.04 1001.82 1630.27 1004.54C1630.27 1005.22 1607.48 1050.32 1561.9 1139.86C1543.8 1175.51 1533.26 1194.08 1530.26 1195.58C1529.31 1196.12 1525.84 1196.87 1519.85 1197.82C1507.47 1200.54 1498.9 1201.9 1494.14 1201.9C1489.78 1201.9 1486.52 1200.61 1484.34 1198.03C1482.16 1195.44 1481.07 1190.54 1481.07 1183.33C1481.07 1169.86 1486.11 1139.04 1496.18 1090.87H1495.56C1472.03 1138.5 1460.26 1162.92 1460.26 1164.14C1460.26 1164.55 1460.87 1164.89 1462.09 1165.17C1463.45 1165.3 1464.13 1165.78 1464.13 1166.59C1464.13 1167.14 1463.86 1167.95 1463.32 1169.04C1459.64 1176.25 1456.79 1182.38 1454.74 1187.41C1452.16 1193.67 1449.71 1198.3 1447.4 1201.29C1444 1205.37 1441.07 1208.98 1438.62 1212.11C1429.37 1223.54 1423.93 1229.25 1422.29 1229.25ZM1703.23 1249.66C1702.68 1249.66 1701.87 1248.91 1700.78 1247.42C1690.16 1235.99 1683.7 1228.57 1681.39 1225.17C1679.21 1221.77 1678.12 1217.82 1678.12 1213.33C1678.12 1209.52 1678.73 1204.42 1679.96 1198.03C1680.64 1194.22 1681.32 1189.73 1682 1184.55L1681.59 1184.15C1664.58 1200.61 1650.98 1208.84 1640.77 1208.84C1635.6 1208.84 1630.91 1206.6 1626.69 1202.11C1615.39 1190 1607.71 1180.95 1603.62 1174.96C1599.54 1168.84 1597.5 1161.56 1597.5 1153.12C1597.5 1143.87 1600.7 1131.76 1607.09 1116.79C1619.75 1088.22 1634.99 1064.2 1652.81 1044.75C1670.77 1025.29 1688.87 1010.52 1707.1 1000.46C1724.38 991.066 1739.01 986.372 1750.99 986.372C1767.99 986.372 1776.5 993.992 1776.5 1009.23C1776.5 1018.62 1773.1 1030.39 1766.29 1044.54C1761.53 1055.02 1758.61 1062.84 1757.52 1068.01C1756.7 1071.96 1755.82 1073.93 1754.86 1073.93C1754.46 1073.93 1753.98 1073.66 1753.43 1073.12C1737.52 1055.97 1729.56 1045.02 1729.56 1040.25C1729.56 1037.94 1730.17 1035.76 1731.39 1033.72L1732.21 1031.27C1730.71 1031.27 1727.99 1032.7 1724.04 1035.56C1716.15 1041.28 1709.89 1046.24 1705.27 1050.46C1673.43 1079.44 1652.47 1107.06 1642.4 1133.33C1638.05 1144.75 1635.87 1153.67 1635.87 1160.06C1635.87 1164.14 1636.76 1166.32 1638.53 1166.59C1640.57 1166.59 1649.89 1158.29 1666.49 1141.69C1678.19 1129.86 1684.11 1123.39 1684.24 1122.3C1683.7 1122.03 1682.95 1121.83 1682 1121.69C1680.23 1121.69 1678.05 1121.83 1675.47 1122.1C1673.02 1122.37 1670.84 1122.51 1668.94 1122.51C1666.9 1122.37 1665.81 1121.9 1665.67 1121.08C1665.81 1120.67 1668.94 1114.89 1675.06 1103.73C1678.05 1098.42 1680.43 1094.61 1682.2 1092.3C1684.11 1089.85 1686.49 1088.22 1689.35 1087.4C1692.2 1086.45 1696.63 1085.57 1702.61 1084.75C1706.97 1084.07 1712.48 1083.12 1719.15 1081.89C1734.79 1078.22 1754.18 1076.11 1777.31 1075.56C1782.62 1075.84 1786.3 1077.74 1788.34 1081.28C1790.38 1084.82 1792.62 1090.74 1795.07 1099.04C1798.34 1109.11 1799.97 1114.41 1799.97 1114.96C1799.97 1115.64 1799.56 1115.98 1798.75 1115.98C1797.93 1115.98 1796.7 1115.84 1795.07 1115.57C1793.57 1115.16 1790.38 1114.89 1785.48 1114.75C1779.08 1115.02 1770.31 1115.3 1759.15 1115.57C1748.13 1115.84 1741.94 1116.11 1740.58 1116.38C1739.22 1116.66 1738.26 1117.47 1737.72 1118.83C1725.2 1157.61 1718.53 1187.21 1717.72 1207.62C1717.31 1212.92 1716.7 1216.46 1715.88 1218.23C1710.17 1230.75 1706.76 1239.39 1705.68 1244.15C1704.99 1247.83 1704.18 1249.66 1703.23 1249.66ZM1825.78 1207.01C1822.78 1207.01 1818.43 1206.12 1812.71 1204.35C1807 1202.58 1801.08 1200.07 1794.96 1196.8C1788.97 1193.4 1783.8 1189.59 1779.45 1185.37C1775.23 1181.02 1773.05 1176.19 1772.91 1170.88C1773.32 1158.09 1778.22 1143.26 1787.61 1126.39L1788.22 1124.96L1788.02 1123.73H1783.32C1776.11 1123.73 1772.51 1122.92 1772.51 1121.28C1772.51 1119.92 1774 1117.61 1777 1114.34C1778.36 1112.98 1780.67 1110.19 1783.94 1105.98C1790.2 1097.27 1794.41 1092.44 1796.59 1091.48L1806.39 1088.63C1808.97 1087.81 1817.07 1076.11 1830.68 1053.52C1831.36 1052.84 1832.58 1050.94 1834.35 1047.81V1047.4C1830.68 1048.08 1828.84 1049.37 1828.84 1051.28C1828.84 1052.09 1828.36 1052.5 1827.41 1052.5C1824.69 1052.23 1817.88 1049.58 1807 1044.54C1794.89 1038.96 1788.77 1034.68 1788.63 1031.68C1788.63 1030.87 1789.17 1030.19 1790.26 1029.64C1809.04 1020.66 1830.34 1013.86 1854.15 1009.23C1880.95 1004.06 1904.22 1001.48 1923.95 1001.48C1948.71 1001.48 1961.23 1004.81 1961.5 1011.48C1961.23 1014.61 1961.1 1017.67 1961.1 1020.66C1961.23 1025.29 1961.57 1029.44 1962.12 1033.11C1962.66 1036.65 1962.93 1039.98 1962.93 1043.11C1962.93 1048.15 1961.1 1050.66 1957.42 1050.66C1952.66 1050.66 1943.2 1046.51 1929.05 1038.21C1928.24 1037.67 1926.81 1037.4 1924.77 1037.4C1921.77 1037.4 1918.17 1037.6 1913.95 1038.01C1908.37 1038.55 1900.68 1039.1 1890.89 1039.64C1883.95 1039.91 1880.48 1041.21 1880.48 1043.52C1880.48 1044.34 1880.68 1045.49 1881.09 1046.99C1881.63 1048.35 1881.9 1050.53 1881.9 1053.52C1881.9 1055.7 1881.36 1058.35 1880.27 1061.48C1879.46 1063.79 1878.78 1065.02 1878.23 1065.16C1877.82 1065.16 1877.28 1064.95 1876.6 1064.54C1876.05 1064.13 1875.24 1063.79 1874.15 1063.52C1873.47 1063.52 1871.97 1065.22 1869.66 1068.62C1867.75 1071.35 1866.46 1073.32 1865.78 1074.54C1865.78 1074.82 1866.53 1074.95 1868.03 1074.95C1871.43 1074.54 1874.01 1074.34 1875.78 1074.34C1878.78 1074.34 1880.95 1075.22 1882.31 1076.99C1883.81 1078.63 1885.17 1081.01 1886.39 1084.14C1888.84 1089.58 1892.38 1095.29 1897.01 1101.28C1899.19 1104.14 1900.27 1106.25 1900.27 1107.61C1900.27 1108.97 1897.96 1109.72 1893.33 1109.85L1889.66 1109.65C1881.36 1109.79 1873.13 1109.99 1864.96 1110.26C1856.94 1110.4 1850.4 1111.69 1845.37 1114.14C1840.47 1116.45 1835.64 1121.76 1830.88 1130.06C1826.25 1138.22 1820.67 1150.81 1814.14 1167.82L1813.94 1168.63C1814.21 1170.68 1816.05 1171.7 1819.45 1171.7C1821.9 1171.7 1823.87 1171.29 1825.37 1170.47C1845.78 1157.68 1859.52 1149.25 1866.6 1145.16C1871.63 1142.31 1875.24 1140.88 1877.41 1140.88C1879.46 1140.88 1880.54 1142.92 1880.68 1147C1880.68 1157.75 1881.09 1165.44 1881.9 1170.06L1882.11 1172.92C1882.11 1174.15 1881.7 1175.3 1880.88 1176.39C1879.12 1178.7 1869.52 1184.96 1852.11 1195.17C1840.54 1202.11 1831.76 1206.05 1825.78 1207.01ZM2048.95 1205.99L2046.7 1205.78C2023.98 1202.24 2012.62 1199.86 2012.62 1198.64C2012.62 1198.09 2012.76 1197.69 2013.03 1197.41C2012.89 1196.46 2011.33 1195.98 2008.33 1195.98C2004.8 1195.98 1999.42 1196.6 1992.21 1197.82C1962.14 1200.95 1939.41 1202.52 1924.04 1202.52C1907.44 1202.52 1891.59 1201.09 1876.48 1198.23C1874.31 1197.96 1873.22 1197.48 1873.22 1196.8C1873.22 1195.98 1874.03 1194.56 1875.67 1192.51C1878.39 1189.52 1882.33 1183.47 1887.51 1174.35C1888.59 1171.49 1889.82 1169.32 1891.18 1167.82C1892.54 1166.32 1896.15 1165.57 1902 1165.57L1907.71 1165.78C1910.7 1166.05 1913.36 1166.19 1915.67 1166.19C1920.57 1166.19 1923.36 1165.3 1924.04 1163.53C1924.04 1154.69 1926.9 1143.46 1932.61 1129.86C1938.33 1116.25 1948.12 1095.43 1962 1067.4C1993.43 1002.63 2009.49 969.296 2010.17 967.391C2012.48 962.764 2013.91 960.451 2014.46 960.451C2015.82 960.451 2023.5 963.785 2037.52 970.452C2045.96 974.67 2050.24 977.664 2050.38 979.433C2050.38 980.385 2049.97 981.27 2049.15 982.086C2047.79 984.399 2047.11 987.052 2047.11 990.046L2036.7 1010.46C1989.62 1101.62 1966.08 1151.35 1966.08 1159.65C1966.08 1160.47 1966.29 1160.88 1966.7 1160.88C1997.45 1159.38 2014.46 1158.63 2017.72 1158.63C2021.67 1158.63 2025.27 1158.91 2028.54 1159.45C2031.94 1159.86 2034.32 1161.29 2035.68 1163.74C2047.38 1182.65 2053.24 1195.1 2053.24 1201.09C2053.24 1203.81 2051.81 1205.44 2048.95 1205.99ZM2094.96 1207.01C2091.97 1207.01 2087.61 1206.12 2081.9 1204.35C2076.18 1202.58 2070.27 1200.07 2064.14 1196.8C2058.16 1193.4 2052.99 1189.59 2048.63 1185.37C2044.41 1181.02 2042.24 1176.19 2042.1 1170.88C2042.51 1158.09 2047.41 1143.26 2056.8 1126.39L2057.41 1124.96L2057.2 1123.73H2052.51C2045.3 1123.73 2041.69 1122.92 2041.69 1121.28C2041.69 1119.92 2043.19 1117.61 2046.18 1114.34C2047.54 1112.98 2049.86 1110.19 2053.12 1105.98C2059.38 1097.27 2063.6 1092.44 2065.78 1091.48L2075.57 1088.63C2078.16 1087.81 2086.25 1076.11 2099.86 1053.52C2100.54 1052.84 2101.77 1050.94 2103.53 1047.81V1047.4C2099.86 1048.08 2098.02 1049.37 2098.02 1051.28C2098.02 1052.09 2097.55 1052.5 2096.59 1052.5C2093.87 1052.23 2087.07 1049.58 2076.18 1044.54C2064.07 1038.96 2057.95 1034.68 2057.82 1031.68C2057.82 1030.87 2058.36 1030.19 2059.45 1029.64C2078.23 1020.66 2099.52 1013.86 2123.33 1009.23C2150.14 1004.06 2173.41 1001.48 2193.14 1001.48C2217.9 1001.48 2230.42 1004.81 2230.69 1011.48C2230.42 1014.61 2230.28 1017.67 2230.28 1020.66C2230.42 1025.29 2230.76 1029.44 2231.3 1033.11C2231.85 1036.65 2232.12 1039.98 2232.12 1043.11C2232.12 1048.15 2230.28 1050.66 2226.61 1050.66C2221.85 1050.66 2212.39 1046.51 2198.24 1038.21C2197.42 1037.67 2195.99 1037.4 2193.95 1037.4C2190.96 1037.4 2187.35 1037.6 2183.13 1038.01C2177.56 1038.55 2169.87 1039.1 2160.07 1039.64C2153.13 1039.91 2149.66 1041.21 2149.66 1043.52C2149.66 1044.34 2149.87 1045.49 2150.27 1046.99C2150.82 1048.35 2151.09 1050.53 2151.09 1053.52C2151.09 1055.7 2150.55 1058.35 2149.46 1061.48C2148.64 1063.79 2147.96 1065.02 2147.42 1065.16C2147.01 1065.16 2146.46 1064.95 2145.78 1064.54C2145.24 1064.13 2144.42 1063.79 2143.33 1063.52C2142.65 1063.52 2141.16 1065.22 2138.84 1068.62C2136.94 1071.35 2135.65 1073.32 2134.97 1074.54C2134.97 1074.82 2135.71 1074.95 2137.21 1074.95C2140.61 1074.54 2143.2 1074.34 2144.97 1074.34C2147.96 1074.34 2150.14 1075.22 2151.5 1076.99C2153 1078.63 2154.36 1081.01 2155.58 1084.14C2158.03 1089.58 2161.57 1095.29 2166.19 1101.28C2168.37 1104.14 2169.46 1106.25 2169.46 1107.61C2169.46 1108.97 2167.15 1109.72 2162.52 1109.85L2158.85 1109.65C2150.55 1109.79 2142.31 1109.99 2134.15 1110.26C2126.12 1110.4 2119.59 1111.69 2114.56 1114.14C2109.66 1116.45 2104.83 1121.76 2100.06 1130.06C2095.44 1138.22 2089.86 1150.81 2083.33 1167.82L2083.12 1168.63C2083.4 1170.68 2085.23 1171.7 2088.64 1171.7C2091.08 1171.7 2093.06 1171.29 2094.55 1170.47C2114.96 1157.68 2128.71 1149.25 2135.78 1145.16C2140.82 1142.31 2144.42 1140.88 2146.6 1140.88C2148.64 1140.88 2149.73 1142.92 2149.87 1147C2149.87 1157.75 2150.27 1165.44 2151.09 1170.06L2151.29 1172.92C2151.29 1174.15 2150.89 1175.3 2150.07 1176.39C2148.3 1178.7 2138.71 1184.96 2121.29 1195.17C2109.73 1202.11 2100.95 1206.05 2094.96 1207.01ZM2149.34 1237.83C2147.3 1237.83 2146.28 1237.35 2146.28 1236.4C2146.28 1234.49 2147.91 1229.93 2151.18 1222.72L2158.73 1203.54C2159.41 1201.77 2160.5 1199.93 2162 1198.03C2163.49 1195.98 2164.99 1194.96 2166.49 1194.96C2167.03 1194.96 2167.64 1195.3 2168.32 1195.98C2168.87 1196.53 2170.03 1196.8 2171.79 1196.8C2177.65 1196.8 2187.65 1192.92 2201.8 1185.17C2216.08 1177.41 2230.92 1168.02 2246.29 1157C2261.8 1145.84 2275.14 1134.75 2286.3 1123.73C2286.84 1123.19 2287.11 1122.64 2287.11 1122.1C2287.11 1119.92 2283.91 1118.09 2277.52 1116.59C2274.25 1116.04 2264.66 1115.77 2248.74 1115.77C2229.28 1115.77 2215.88 1114.68 2208.53 1112.51C2201.18 1110.19 2197.51 1106.11 2197.51 1100.26C2197.51 1095.36 2200.37 1086.45 2206.08 1073.52L2211.8 1059.24C2216.29 1048.9 2224.79 1037.6 2237.31 1025.36C2249.97 1013.11 2263.16 1002.22 2276.91 992.699C2294.32 980.589 2306.02 974.534 2312.01 974.534C2313.64 974.534 2315.01 975.078 2316.09 976.167C2317.32 977.119 2318.68 978.412 2320.18 980.045C2322.22 983.038 2325.82 986.644 2330.99 990.862C2337.93 996.169 2341.4 999.639 2341.4 1001.27C2341.4 1002.09 2341.13 1002.97 2340.59 1003.92C2337.18 1009.64 2332.35 1013.72 2326.09 1016.17C2319.84 1018.48 2313.64 1020.18 2307.52 1021.27C2301.53 1022.36 2297.18 1023.79 2294.46 1025.56C2278.68 1037.81 2266.09 1048.9 2256.7 1058.83C2247.45 1068.76 2242.82 1074.88 2242.82 1077.2C2242.82 1077.88 2243.16 1078.22 2243.84 1078.22C2265.48 1078.22 2279.36 1078.35 2285.48 1078.63C2291.6 1078.9 2295.96 1079.78 2298.54 1081.28C2301.26 1082.78 2304.05 1085.23 2306.91 1088.63C2310.18 1092.44 2316.09 1098.02 2324.67 1105.36C2329.02 1109.17 2331.2 1113.6 2331.2 1118.63C2331.2 1132.1 2316.91 1149.79 2288.34 1171.7C2256.9 1195.78 2228.6 1212.79 2203.43 1222.72C2177.3 1232.79 2159.28 1237.83 2149.34 1237.83Z" fill="black"/>
<path d="M45.5693 1247.25L726.139 272.896M2493.92 1255.2L2083.8 467.632M1029.19 734.907L726.052 281.553M1028.85 727.374L1423.12 12.0679M1858.86 910.4L2083.74 460.644M1858.82 916.756L1422.94 19.136" stroke="black" stroke-width="50"/>
<path d="M382.612 1304.26C380.843 1304.26 376.081 1301.74 368.325 1296.71L351.18 1286.71C349.139 1285.35 348.119 1282.35 348.119 1277.73C348.119 1258.68 373.427 1186.08 424.045 1059.95L431.188 1043.42C429.691 1043.55 423.909 1050.56 413.84 1064.44C408.941 1071.24 403.839 1078.11 398.532 1085.05C385.469 1102.06 376.149 1110.57 370.57 1110.57C369.754 1110.57 369.005 1110.36 368.325 1109.95C362.474 1106.55 357.372 1103.76 353.017 1101.59C345.67 1098.18 340.363 1094.92 337.097 1091.79C333.832 1088.66 332.199 1083.42 332.199 1076.07C332.199 1069.41 333.356 1059.81 335.669 1047.3C333.492 1050.42 322.946 1078.05 304.033 1130.16C298.862 1143.77 293.488 1157.65 287.909 1171.8C274.574 1205.68 265.866 1222.62 261.784 1222.62C261.24 1222.62 260.763 1222.35 260.355 1221.8C251.647 1209.15 246.068 1201.46 243.619 1198.74C241.85 1196.43 240.966 1195 240.966 1194.45C243.279 1185.06 261.24 1136.35 294.848 1048.32C317.708 992.528 333.492 963.41 342.2 960.96C344.513 960.416 350.092 956.402 358.936 948.918C361.93 945.925 364.107 944.428 365.468 944.428C367.1 944.428 368.053 946.469 368.325 950.551C369.005 955.314 370.298 957.763 372.203 957.899C374.788 958.171 376.081 958.647 376.081 959.328C376.081 960.008 375.741 960.892 375.06 961.981C374.516 962.933 373.904 964.294 373.223 966.063C372.543 967.832 372.203 970.009 372.203 972.594C372.203 974.227 372.407 975.996 372.815 977.901C374.04 984.432 374.652 991.848 374.652 1000.15C374.652 1012.67 373.496 1028.86 371.182 1048.72C370.638 1053.62 370.366 1056.82 370.366 1058.32C374.04 1054.64 379.074 1048.45 385.469 1039.74C411.186 1003.01 446.02 965.723 489.969 927.896C494.052 923.814 496.841 921.773 498.338 921.773C500.107 921.773 501.535 924.086 502.624 928.712C503.848 933.203 504.937 941.707 505.889 954.225C505.889 962.933 502.76 974.839 496.501 989.943C490.378 1005.05 482.758 1022.46 473.641 1042.19C460.307 1070.63 442.89 1113.83 421.391 1171.8C400.029 1229.76 387.715 1272.96 384.449 1301.4C384.449 1303.31 383.837 1304.26 382.612 1304.26ZM514.96 1267.93H514.143C508.02 1267.93 497.407 1262.96 482.303 1253.03C479.582 1251.4 478.221 1249.08 478.221 1246.09C478.221 1237.79 483.596 1219.42 494.345 1190.98C524.416 1116.42 555.372 1049.13 587.212 989.126C587.348 989.126 587.416 988.718 587.416 987.902L556.596 997.086C530.063 1005.11 513.531 1009.13 507 1009.13C500.605 1009.13 495.434 1007.43 491.488 1004.03C487.542 1000.49 482.508 994.297 476.384 985.453C474.48 983.003 473.527 981.575 473.527 981.167C473.527 979.534 477.405 977.493 485.161 975.043C490.876 973.547 497.203 971.234 504.142 968.104C511.218 964.974 516.048 963.41 518.633 963.41C519.178 963.41 519.586 963.546 519.858 963.818C520.13 964.09 520.334 965.315 520.47 967.492C523.192 967.22 536.662 963.614 560.883 956.674C672.866 925.107 741.172 909.323 765.8 909.323C768.658 909.323 771.379 909.527 773.965 909.935C776.686 910.343 778.115 911.772 778.251 914.221C775.121 944.292 770.835 959.328 765.392 959.328C763.759 959.328 762.059 957.831 760.29 954.837C759.201 953.205 757.977 951.98 756.616 951.164C755.799 950.755 754.439 950.551 752.534 950.551C746.411 950.551 733.348 952.524 713.346 956.47C697.154 959.6 681.507 963.069 666.403 966.879C659.6 968.784 652.388 970.621 644.768 972.39C642.999 972.798 641.979 974.091 641.707 976.268L640.89 979.125V978.105C640.346 978.241 636.128 985.453 628.236 999.74C597.077 1056.89 565.169 1125.67 532.512 1206.09C523.94 1228.95 519.654 1241.67 519.654 1244.25C519.654 1245.89 519.858 1247.93 520.266 1250.38C520.811 1254.32 521.083 1256.98 521.083 1258.34C521.083 1264.32 519.042 1267.52 514.96 1267.93ZM703.729 1278.13H703.525C702.709 1278.13 701.96 1277.73 701.28 1276.91C697.334 1270.92 693.864 1265.96 690.871 1262.01C685.156 1254.66 682.298 1249.76 682.298 1247.31V1246.91C682.298 1243.51 685.564 1240.72 692.095 1238.54C697.674 1236.5 717.268 1231.4 750.877 1223.23V1223.03C750.877 1217.18 758.769 1195.68 774.552 1158.53C779.315 1147.92 798.772 1106.01 832.925 1032.8C869.8 953.885 888.713 914.357 889.666 914.221C892.251 914.357 894.768 914.425 897.217 914.425H901.095C905.586 914.153 910.416 913.677 915.587 912.997C917.355 912.861 918.92 912.792 920.281 912.792C921.778 912.792 923.274 912.929 924.771 913.201C926.404 913.337 927.288 914.561 927.424 916.875V917.283C927.424 920.412 925.588 926.127 921.914 934.427C918.24 942.727 912.049 955.586 903.34 973.002C885.652 1008.92 861.227 1060.56 830.068 1127.92C807.073 1177.58 795.575 1205.61 795.575 1212.01V1212.21C795.575 1212.75 795.779 1213.03 796.187 1213.03H796.595L805.372 1211.8C840.885 1205.13 867.419 1201.46 884.971 1200.78C887.557 1200.64 889.938 1200.58 892.115 1200.58C905.041 1200.58 911.709 1202.62 912.117 1206.7L911.913 1208.54C911.505 1209.9 911.096 1211.67 910.688 1213.84C905.109 1235.34 900.075 1247.11 895.585 1249.15C895.312 1249.15 894.972 1248.81 894.564 1248.13C894.156 1247.45 892.523 1246.36 889.666 1244.87C885.039 1242.42 877.828 1241.19 868.031 1241.19C866.262 1241.19 864.357 1241.26 862.316 1241.4C831.973 1242.62 787.003 1251.74 727.405 1268.75C725.636 1269.43 724.411 1270.65 723.731 1272.42C722.915 1274.73 720.738 1276.23 717.2 1276.91L703.729 1278.13ZM929.555 1175.68C934.182 1175.68 941.597 1169.89 951.802 1158.33C962.007 1146.76 972.28 1132.2 982.622 1114.65C992.963 1096.96 1001.19 1078.59 1007.32 1059.54C1007.45 1059 1007.52 1058.25 1007.52 1057.3C1007.52 1054.98 1007.11 1051.72 1006.3 1047.5C1005.48 1043.28 1004.46 1039.47 1003.24 1036.07C1002.01 1032.67 1000.85 1030.97 999.766 1030.97L999.154 1031.17C994.255 1035.12 991.806 1037.91 991.806 1039.54C991.806 1040.49 992.759 1041.51 994.664 1042.6C997.521 1044.37 998.95 1047.02 998.95 1050.56C998.95 1052.06 998.678 1053.08 998.133 1053.62C997.589 1054.17 994.391 1055.19 988.541 1056.68C982.145 1058.04 978.54 1058.93 977.723 1059.34C976.907 1059.34 975.546 1060.63 973.641 1063.22C970.784 1066.89 969.355 1069.34 969.355 1070.56C969.355 1071.52 969.627 1072.47 970.171 1073.42C970.716 1074.24 970.988 1074.85 970.988 1075.26C970.58 1076.07 970.171 1076.48 969.763 1076.48L968.335 1076.28C966.838 1076.28 965.001 1077.77 962.824 1080.77C960.102 1084.31 955.68 1092.2 949.557 1104.44C933.637 1137.1 925.677 1158.73 925.677 1169.35C925.677 1173.57 926.97 1175.68 929.555 1175.68ZM917.717 1217.31C912.003 1217.31 906.968 1216.16 902.614 1213.84C892.953 1208.67 888.123 1197.99 888.123 1181.8C888.123 1169.55 890.436 1155.2 895.062 1138.73C899.552 1122.27 905.539 1105.46 913.023 1088.32C920.643 1071.18 929.079 1055.32 938.332 1040.76C947.584 1026.07 957.041 1014.16 966.702 1005.05C976.499 995.794 985.683 991.167 994.255 991.167C998.61 991.167 1002.69 992.528 1006.5 995.25C1018.34 1003.41 1027.39 1010.28 1033.65 1015.86C1039.91 1021.44 1043.78 1027.57 1045.28 1034.23C1045.28 1055.73 1042.36 1075.87 1036.5 1094.65C1030.65 1113.29 1022.97 1130.16 1013.44 1145.26C1004.05 1160.37 993.711 1173.29 982.418 1184.04C971.124 1194.79 959.762 1203.02 948.333 1208.74C937.039 1214.45 926.834 1217.31 917.717 1217.31ZM1001.28 1241.6C999.244 1241.6 998.223 1241.12 998.223 1240.17C998.223 1238.27 999.856 1233.71 1003.12 1226.5L1010.67 1207.31C1011.35 1205.54 1012.44 1203.71 1013.94 1201.8C1015.44 1199.76 1016.93 1198.74 1018.43 1198.74C1018.97 1198.74 1019.59 1199.08 1020.27 1199.76C1020.81 1200.3 1021.97 1200.58 1023.74 1200.58C1029.59 1200.58 1039.59 1196.7 1053.74 1188.94C1068.03 1181.19 1082.86 1171.8 1098.23 1160.78C1113.74 1149.62 1127.08 1138.53 1138.24 1127.51C1138.78 1126.96 1139.05 1126.42 1139.05 1125.87C1139.05 1123.7 1135.86 1121.86 1129.46 1120.36C1126.19 1119.82 1116.6 1119.55 1100.68 1119.55C1081.22 1119.55 1067.82 1118.46 1060.47 1116.28C1053.13 1113.97 1049.45 1109.89 1049.45 1104.04C1049.45 1099.14 1052.31 1090.22 1058.02 1077.3L1063.74 1063.01C1068.23 1052.67 1076.73 1041.38 1089.25 1029.13C1101.91 1016.88 1115.11 1006 1128.85 996.474C1146.26 984.364 1157.97 978.309 1163.95 978.309C1165.59 978.309 1166.95 978.853 1168.04 979.942C1169.26 980.894 1170.62 982.187 1172.12 983.82C1174.16 986.813 1177.76 990.419 1182.94 994.637C1189.87 999.944 1193.34 1003.41 1193.34 1005.05C1193.34 1005.86 1193.07 1006.75 1192.53 1007.7C1189.13 1013.41 1184.3 1017.5 1178.04 1019.95C1171.78 1022.26 1165.59 1023.96 1159.46 1025.05C1153.48 1026.14 1149.12 1027.57 1146.4 1029.33C1130.62 1041.58 1118.03 1052.67 1108.64 1062.6C1099.39 1072.54 1094.76 1078.66 1094.76 1080.97C1094.76 1081.65 1095.1 1081.99 1095.78 1081.99C1117.42 1081.99 1131.3 1082.13 1137.42 1082.4C1143.54 1082.67 1147.9 1083.56 1150.48 1085.05C1153.2 1086.55 1155.99 1089 1158.85 1092.4C1162.12 1096.21 1168.04 1101.79 1176.61 1109.14C1180.96 1112.95 1183.14 1117.37 1183.14 1122.4C1183.14 1135.88 1168.85 1153.56 1140.28 1175.47C1108.85 1199.56 1080.54 1216.56 1055.37 1226.5C1029.25 1236.57 1011.22 1241.6 1001.28 1241.6ZM1353.54 1117.71C1368.92 1112.81 1380.34 1109.48 1387.83 1107.71C1394.22 1106.21 1398.92 1104.78 1401.91 1103.42C1404.91 1101.93 1407.29 1099.61 1409.06 1096.48C1410.82 1093.22 1412.93 1087.98 1415.38 1080.77C1421.1 1064.3 1436.74 1029.95 1462.33 977.697C1462.87 977.153 1463.14 976.54 1463.14 975.86L1462.94 975.043C1424.57 1011.51 1387.96 1058.93 1353.13 1117.3L1353.54 1117.71ZM1281.29 1268.34C1278.97 1268.34 1277.21 1265.82 1275.98 1260.79C1274.62 1255.89 1273.06 1248.2 1271.29 1237.72C1270.47 1232.42 1269.99 1229.01 1269.86 1227.52C1269.86 1222.62 1271.15 1216.63 1273.74 1209.56C1280.81 1190.51 1284.35 1180.17 1284.35 1178.53C1284.35 1177.58 1284.08 1176.9 1283.53 1176.49C1255.77 1171.87 1241.9 1168.19 1241.9 1165.47C1241.9 1164.65 1242.64 1163.7 1244.14 1162.61L1257.61 1151.8C1281.02 1138.87 1295.03 1132.41 1299.66 1132.41C1301.15 1132.41 1302.04 1133.15 1302.31 1134.65C1302.31 1135.6 1302.45 1136.28 1302.72 1136.69C1316.19 1115.6 1330.61 1093.35 1345.99 1069.95C1413.48 969.261 1459.26 918.916 1483.35 918.916C1484.71 918.916 1486 919.12 1487.23 919.528C1498.93 922.521 1507.5 924.018 1512.94 924.018C1515.8 924.154 1517.84 924.426 1519.07 924.834C1520.29 925.107 1520.9 926.059 1520.9 927.692C1520.9 929.189 1520.49 931.366 1519.68 934.223L1519.88 935.04C1519.88 937.489 1517.98 942.863 1514.17 951.164C1510.49 959.328 1505.8 969.397 1500.08 981.371C1488.93 1003.96 1476.07 1031.44 1461.51 1063.83C1447.09 1096.08 1439.4 1120.5 1438.45 1137.1C1438.45 1139.55 1437.97 1140.77 1437.02 1140.77L1434.77 1140.57C1433.96 1140.57 1433.34 1141.18 1432.94 1142.41C1428.17 1160.5 1425.79 1172.95 1425.79 1179.76C1425.79 1182.75 1426.06 1185 1426.61 1186.49C1427.15 1187.85 1427.83 1188.74 1428.65 1189.15C1429.47 1189.55 1430.28 1189.76 1431.1 1189.76L1433.55 1189.55C1433.96 1189.55 1434.16 1189.76 1434.16 1190.17C1434.16 1190.57 1433.75 1191.46 1432.94 1192.82C1429.67 1197.99 1426.81 1202.68 1424.36 1206.9C1420.55 1213.3 1417.36 1218.33 1414.77 1222.01C1412.32 1225.68 1410.21 1227.52 1408.44 1227.52C1407.35 1227.52 1406.4 1226.7 1405.59 1225.07C1400.69 1216.36 1396.4 1210.17 1392.73 1206.49C1390.14 1203.64 1388.03 1200.85 1386.4 1198.13C1384.9 1195.41 1384.15 1191.6 1384.15 1186.7C1384.15 1178.53 1386.74 1164.86 1391.91 1145.67C1391.91 1145.13 1391.37 1144.86 1390.28 1144.86C1385.79 1144.86 1374.09 1148.33 1355.17 1155.27C1337.48 1161.8 1327.96 1165.95 1326.6 1167.72C1312.45 1203.23 1305.37 1224.32 1305.37 1230.99C1305.37 1234.25 1306.39 1235.89 1308.43 1235.89C1309.39 1235.89 1309.86 1236.02 1309.86 1236.29C1309.86 1236.57 1309.39 1237.31 1308.43 1238.54C1298.77 1251.06 1292.31 1259.15 1289.04 1262.83C1285.78 1266.5 1283.19 1268.34 1281.29 1268.34ZM1456.29 1233.03C1455.2 1233.03 1454.46 1232.08 1454.05 1230.17C1453.5 1228.27 1452.62 1223.91 1451.39 1217.11C1450.58 1212.35 1450.17 1208.94 1450.17 1206.9C1450.17 1196.43 1455.95 1177.38 1467.52 1149.75C1478.95 1122 1489.29 1098.25 1498.54 1078.52C1507.93 1058.79 1516.71 1041.99 1524.87 1028.11C1533.03 1014.09 1538.34 1007.09 1540.79 1007.09C1548.55 1009.67 1555.49 1010.97 1561.61 1010.97C1563.24 1010.97 1564.6 1010.76 1565.69 1010.35C1566.1 1011.58 1567.26 1012.19 1569.16 1012.19C1571.2 1012.19 1572.22 1013.21 1572.22 1015.25C1572.22 1017.29 1573.17 1018.52 1575.08 1018.93C1576.3 1019.33 1576.92 1021.65 1576.92 1025.86C1576.92 1028.31 1576.51 1033.01 1575.69 1039.95C1575.01 1046.89 1574.33 1053.35 1573.65 1059.34C1572.97 1065.19 1570.93 1074.85 1567.53 1088.32C1564.13 1101.79 1562.09 1113.02 1561.4 1122C1566.3 1113.56 1578.07 1091.18 1596.71 1054.85C1619.71 1009.67 1631.75 983.412 1632.84 976.064C1632.98 974.975 1633.45 973.955 1634.27 973.002C1635.22 972.05 1636.24 971.574 1637.33 971.574C1637.87 971.574 1638.42 971.778 1638.96 972.186C1652.57 984.16 1660.53 991.304 1662.84 993.617C1665.56 996.474 1666.93 998.991 1666.93 1001.17C1666.93 1003.21 1666.04 1005.59 1664.27 1008.31C1664.27 1008.99 1641.48 1054.1 1595.9 1143.63C1577.8 1179.28 1567.26 1197.85 1564.26 1199.35C1563.31 1199.9 1559.84 1200.64 1553.85 1201.6C1541.47 1204.32 1532.9 1205.68 1528.14 1205.68C1523.78 1205.68 1520.52 1204.39 1518.34 1201.8C1516.16 1199.22 1515.07 1194.32 1515.07 1187.1C1515.07 1173.63 1520.11 1142.81 1530.18 1094.65H1529.56C1506.03 1142.27 1494.26 1166.69 1494.26 1167.92C1494.26 1168.33 1494.87 1168.67 1496.09 1168.94C1497.45 1169.08 1498.13 1169.55 1498.13 1170.37C1498.13 1170.91 1497.86 1171.73 1497.32 1172.82C1493.64 1180.03 1490.79 1186.15 1488.74 1191.19C1486.16 1197.45 1483.71 1202.07 1481.4 1205.07C1478 1209.15 1475.07 1212.75 1472.62 1215.88C1463.37 1227.31 1457.93 1233.03 1456.29 1233.03ZM1737.23 1253.44C1736.68 1253.44 1735.87 1252.69 1734.78 1251.19C1724.16 1239.76 1717.7 1232.35 1715.39 1228.95C1713.21 1225.54 1712.12 1221.6 1712.12 1217.11C1712.12 1213.3 1712.73 1208.2 1713.96 1201.8C1714.64 1197.99 1715.32 1193.5 1716 1188.33L1715.59 1187.92C1698.58 1204.39 1684.98 1212.62 1674.77 1212.62C1669.6 1212.62 1664.91 1210.37 1660.69 1205.88C1649.39 1193.77 1641.71 1184.72 1637.62 1178.74C1633.54 1172.61 1631.5 1165.33 1631.5 1156.9C1631.5 1147.65 1634.7 1135.54 1641.09 1120.57C1653.75 1091.99 1668.99 1067.98 1686.81 1048.52C1704.77 1029.06 1722.87 1014.3 1741.1 1004.23C1758.38 994.841 1773.01 990.147 1784.99 990.147C1801.99 990.147 1810.5 997.767 1810.5 1013.01C1810.5 1022.4 1807.1 1034.16 1800.29 1048.32C1795.53 1058.79 1792.61 1066.62 1791.52 1071.79C1790.7 1075.73 1789.82 1077.71 1788.86 1077.71C1788.46 1077.71 1787.98 1077.43 1787.43 1076.89C1771.52 1059.75 1763.56 1048.79 1763.56 1044.03C1763.56 1041.72 1764.17 1039.54 1765.39 1037.5L1766.21 1035.05C1764.71 1035.05 1761.99 1036.48 1758.04 1039.34C1750.15 1045.05 1743.89 1050.02 1739.27 1054.23C1707.43 1083.22 1686.47 1110.84 1676.4 1137.1C1672.05 1148.53 1669.87 1157.44 1669.87 1163.84C1669.87 1167.92 1670.76 1170.1 1672.53 1170.37C1674.57 1170.37 1683.89 1162.07 1700.49 1145.47C1712.19 1133.63 1718.11 1127.17 1718.24 1126.08C1717.7 1125.81 1716.95 1125.6 1716 1125.47C1714.23 1125.47 1712.05 1125.6 1709.47 1125.87C1707.02 1126.15 1704.84 1126.28 1702.94 1126.28C1700.9 1126.15 1699.81 1125.67 1699.67 1124.85C1699.81 1124.45 1702.94 1118.66 1709.06 1107.51C1712.05 1102.2 1714.43 1098.39 1716.2 1096.08C1718.11 1093.63 1720.49 1091.99 1723.35 1091.18C1726.2 1090.22 1730.63 1089.34 1736.61 1088.52C1740.97 1087.84 1746.48 1086.89 1753.15 1085.67C1768.79 1081.99 1788.18 1079.88 1811.31 1079.34C1816.62 1079.61 1820.3 1081.52 1822.34 1085.05C1824.38 1088.59 1826.62 1094.51 1829.07 1102.81C1832.34 1112.88 1833.97 1118.19 1833.97 1118.73C1833.97 1119.41 1833.56 1119.75 1832.75 1119.75C1831.93 1119.75 1830.7 1119.62 1829.07 1119.34C1827.57 1118.94 1824.38 1118.66 1819.48 1118.53C1813.08 1118.8 1804.31 1119.07 1793.15 1119.34C1782.13 1119.62 1775.94 1119.89 1774.58 1120.16C1773.22 1120.43 1772.26 1121.25 1771.72 1122.61C1759.2 1161.39 1752.53 1190.98 1751.72 1211.39C1751.31 1216.7 1750.7 1220.24 1749.88 1222.01C1744.17 1234.52 1740.76 1243.16 1739.68 1247.93C1738.99 1251.6 1738.18 1253.44 1737.23 1253.44ZM1859.78 1210.78C1856.78 1210.78 1852.43 1209.9 1846.71 1208.13C1841 1206.36 1835.08 1203.84 1828.96 1200.58C1822.97 1197.17 1817.8 1193.36 1813.45 1189.15C1809.23 1184.79 1807.05 1179.96 1806.91 1174.65C1807.32 1161.86 1812.22 1147.03 1821.61 1130.16L1822.22 1128.73L1822.02 1127.51H1817.32C1810.11 1127.51 1806.51 1126.69 1806.51 1125.06C1806.51 1123.7 1808 1121.38 1811 1118.12C1812.36 1116.76 1814.67 1113.97 1817.94 1109.75C1824.2 1101.04 1828.41 1096.21 1830.59 1095.26L1840.39 1092.4C1842.97 1091.59 1851.07 1079.88 1864.68 1057.3C1865.36 1056.62 1866.58 1054.71 1868.35 1051.58V1051.17C1864.68 1051.85 1862.84 1053.15 1862.84 1055.05C1862.84 1055.87 1862.36 1056.28 1861.41 1056.28C1858.69 1056 1851.88 1053.35 1841 1048.32C1828.89 1042.74 1822.77 1038.45 1822.63 1035.46C1822.63 1034.64 1823.17 1033.96 1824.26 1033.42C1843.04 1024.44 1864.34 1017.63 1888.15 1013.01C1914.95 1007.84 1938.22 1005.25 1957.95 1005.25C1982.71 1005.25 1995.23 1008.58 1995.5 1015.25C1995.23 1018.38 1995.1 1021.44 1995.1 1024.44C1995.23 1029.06 1995.57 1033.21 1996.12 1036.89C1996.66 1040.42 1996.93 1043.76 1996.93 1046.89C1996.93 1051.92 1995.1 1054.44 1991.42 1054.44C1986.66 1054.44 1977.2 1050.29 1963.05 1041.99C1962.24 1041.44 1960.81 1041.17 1958.77 1041.17C1955.77 1041.17 1952.17 1041.38 1947.95 1041.78C1942.37 1042.33 1934.68 1042.87 1924.89 1043.42C1917.95 1043.69 1914.48 1044.98 1914.48 1047.3C1914.48 1048.11 1914.68 1049.27 1915.09 1050.77C1915.63 1052.13 1915.9 1054.3 1915.9 1057.3C1915.9 1059.47 1915.36 1062.13 1914.27 1065.26C1913.46 1067.57 1912.78 1068.79 1912.23 1068.93C1911.82 1068.93 1911.28 1068.73 1910.6 1068.32C1910.05 1067.91 1909.24 1067.57 1908.15 1067.3C1907.47 1067.3 1905.97 1069 1903.66 1072.4C1901.75 1075.12 1900.46 1077.09 1899.78 1078.32C1899.78 1078.59 1900.53 1078.73 1902.03 1078.73C1905.43 1078.32 1908.01 1078.11 1909.78 1078.11C1912.78 1078.11 1914.95 1079 1916.31 1080.77C1917.81 1082.4 1919.17 1084.78 1920.39 1087.91C1922.84 1093.35 1926.38 1099.07 1931.01 1105.06C1933.19 1107.91 1934.27 1110.02 1934.27 1111.38C1934.27 1112.74 1931.96 1113.49 1927.33 1113.63L1923.66 1113.42C1915.36 1113.56 1907.13 1113.76 1898.96 1114.04C1890.94 1114.17 1884.4 1115.47 1879.37 1117.91C1874.47 1120.23 1869.64 1125.53 1864.88 1133.83C1860.25 1142 1854.67 1154.58 1848.14 1171.59L1847.94 1172.41C1848.21 1174.45 1850.05 1175.47 1853.45 1175.47C1855.9 1175.47 1857.87 1175.06 1859.37 1174.25C1879.78 1161.46 1893.52 1153.02 1900.6 1148.94C1905.63 1146.08 1909.24 1144.65 1911.41 1144.65C1913.46 1144.65 1914.54 1146.69 1914.68 1150.77C1914.68 1161.52 1915.09 1169.21 1915.9 1173.84L1916.11 1176.7C1916.11 1177.92 1915.7 1179.08 1914.88 1180.17C1913.12 1182.48 1903.52 1188.74 1886.11 1198.94C1874.54 1205.88 1865.76 1209.83 1859.78 1210.78ZM2082.95 1209.76L2080.7 1209.56C2057.98 1206.02 2046.62 1203.64 2046.62 1202.41C2046.62 1201.87 2046.76 1201.46 2047.03 1201.19C2046.89 1200.24 2045.33 1199.76 2042.33 1199.76C2038.8 1199.76 2033.42 1200.37 2026.21 1201.6C1996.14 1204.73 1973.41 1206.29 1958.04 1206.29C1941.44 1206.29 1925.59 1204.86 1910.48 1202C1908.31 1201.73 1907.22 1201.26 1907.22 1200.58C1907.22 1199.76 1908.03 1198.33 1909.67 1196.29C1912.39 1193.3 1916.33 1187.24 1921.51 1178.12C1922.59 1175.27 1923.82 1173.09 1925.18 1171.59C1926.54 1170.1 1930.15 1169.35 1936 1169.35L1941.71 1169.55C1944.7 1169.82 1947.36 1169.96 1949.67 1169.96C1954.57 1169.96 1957.36 1169.08 1958.04 1167.31C1958.04 1158.46 1960.9 1147.24 1966.61 1133.63C1972.33 1120.02 1982.12 1099.21 1996 1071.18C2027.43 1006.41 2043.49 973.07 2044.17 971.166C2046.48 966.539 2047.91 964.226 2048.46 964.226C2049.82 964.226 2057.5 967.56 2071.52 974.227C2079.96 978.445 2084.24 981.439 2084.38 983.208C2084.38 984.16 2083.97 985.044 2083.15 985.861C2081.79 988.174 2081.11 990.827 2081.11 993.821L2070.7 1014.23C2023.62 1105.4 2000.08 1155.13 2000.08 1163.43C2000.08 1164.25 2000.29 1164.65 2000.7 1164.65C2031.45 1163.16 2048.46 1162.41 2051.72 1162.41C2055.67 1162.41 2059.27 1162.68 2062.54 1163.23C2065.94 1163.63 2068.32 1165.06 2069.68 1167.51C2081.38 1186.42 2087.24 1198.87 2087.24 1204.86C2087.24 1207.58 2085.81 1209.22 2082.95 1209.76ZM2128.96 1210.78C2125.97 1210.78 2121.61 1209.9 2115.9 1208.13C2110.18 1206.36 2104.27 1203.84 2098.14 1200.58C2092.16 1197.17 2086.99 1193.36 2082.63 1189.15C2078.41 1184.79 2076.24 1179.96 2076.1 1174.65C2076.51 1161.86 2081.41 1147.03 2090.8 1130.16L2091.41 1128.73L2091.2 1127.51H2086.51C2079.3 1127.51 2075.69 1126.69 2075.69 1125.06C2075.69 1123.7 2077.19 1121.38 2080.18 1118.12C2081.54 1116.76 2083.86 1113.97 2087.12 1109.75C2093.38 1101.04 2097.6 1096.21 2099.78 1095.26L2109.57 1092.4C2112.16 1091.59 2120.25 1079.88 2133.86 1057.3C2134.54 1056.62 2135.77 1054.71 2137.53 1051.58V1051.17C2133.86 1051.85 2132.02 1053.15 2132.02 1055.05C2132.02 1055.87 2131.55 1056.28 2130.59 1056.28C2127.87 1056 2121.07 1053.35 2110.18 1048.32C2098.07 1042.74 2091.95 1038.45 2091.82 1035.46C2091.82 1034.64 2092.36 1033.96 2093.45 1033.42C2112.23 1024.44 2133.52 1017.63 2157.33 1013.01C2184.14 1007.84 2207.41 1005.25 2227.14 1005.25C2251.9 1005.25 2264.42 1008.58 2264.69 1015.25C2264.42 1018.38 2264.28 1021.44 2264.28 1024.44C2264.42 1029.06 2264.76 1033.21 2265.3 1036.89C2265.85 1040.42 2266.12 1043.76 2266.12 1046.89C2266.12 1051.92 2264.28 1054.44 2260.61 1054.44C2255.85 1054.44 2246.39 1050.29 2232.24 1041.99C2231.42 1041.44 2229.99 1041.17 2227.95 1041.17C2224.96 1041.17 2221.35 1041.38 2217.13 1041.78C2211.56 1042.33 2203.87 1042.87 2194.07 1043.42C2187.13 1043.69 2183.66 1044.98 2183.66 1047.3C2183.66 1048.11 2183.87 1049.27 2184.27 1050.77C2184.82 1052.13 2185.09 1054.3 2185.09 1057.3C2185.09 1059.47 2184.55 1062.13 2183.46 1065.26C2182.64 1067.57 2181.96 1068.79 2181.42 1068.93C2181.01 1068.93 2180.46 1068.73 2179.78 1068.32C2179.24 1067.91 2178.42 1067.57 2177.33 1067.3C2176.65 1067.3 2175.16 1069 2172.84 1072.4C2170.94 1075.12 2169.65 1077.09 2168.97 1078.32C2168.97 1078.59 2169.71 1078.73 2171.21 1078.73C2174.61 1078.32 2177.2 1078.11 2178.97 1078.11C2181.96 1078.11 2184.14 1079 2185.5 1080.77C2187 1082.4 2188.36 1084.78 2189.58 1087.91C2192.03 1093.35 2195.57 1099.07 2200.19 1105.06C2202.37 1107.91 2203.46 1110.02 2203.46 1111.38C2203.46 1112.74 2201.15 1113.49 2196.52 1113.63L2192.85 1113.42C2184.55 1113.56 2176.31 1113.76 2168.15 1114.04C2160.12 1114.17 2153.59 1115.47 2148.56 1117.91C2143.66 1120.23 2138.83 1125.53 2134.06 1133.83C2129.44 1142 2123.86 1154.58 2117.33 1171.59L2117.12 1172.41C2117.4 1174.45 2119.23 1175.47 2122.64 1175.47C2125.08 1175.47 2127.06 1175.06 2128.55 1174.25C2148.96 1161.46 2162.71 1153.02 2169.78 1148.94C2174.82 1146.08 2178.42 1144.65 2180.6 1144.65C2182.64 1144.65 2183.73 1146.69 2183.87 1150.77C2183.87 1161.52 2184.27 1169.21 2185.09 1173.84L2185.29 1176.7C2185.29 1177.92 2184.89 1179.08 2184.07 1180.17C2182.3 1182.48 2172.71 1188.74 2155.29 1198.94C2143.73 1205.88 2134.95 1209.83 2128.96 1210.78ZM2183.34 1241.6C2181.3 1241.6 2180.28 1241.12 2180.28 1240.17C2180.28 1238.27 2181.91 1233.71 2185.18 1226.5L2192.73 1207.31C2193.41 1205.54 2194.5 1203.71 2196 1201.8C2197.49 1199.76 2198.99 1198.74 2200.49 1198.74C2201.03 1198.74 2201.64 1199.08 2202.32 1199.76C2202.87 1200.3 2204.03 1200.58 2205.79 1200.58C2211.65 1200.58 2221.65 1196.7 2235.8 1188.94C2250.08 1181.19 2264.92 1171.8 2280.29 1160.78C2295.8 1149.62 2309.14 1138.53 2320.3 1127.51C2320.84 1126.96 2321.11 1126.42 2321.11 1125.87C2321.11 1123.7 2317.91 1121.86 2311.52 1120.36C2308.25 1119.82 2298.66 1119.55 2282.74 1119.55C2263.28 1119.55 2249.88 1118.46 2242.53 1116.28C2235.18 1113.97 2231.51 1109.89 2231.51 1104.04C2231.51 1099.14 2234.37 1090.22 2240.08 1077.3L2245.8 1063.01C2250.29 1052.67 2258.79 1041.38 2271.31 1029.13C2283.97 1016.88 2297.16 1006 2310.91 996.474C2328.32 984.364 2340.02 978.309 2346.01 978.309C2347.64 978.309 2349.01 978.853 2350.09 979.942C2351.32 980.894 2352.68 982.187 2354.18 983.82C2356.22 986.813 2359.82 990.419 2364.99 994.637C2371.93 999.944 2375.4 1003.41 2375.4 1005.05C2375.4 1005.86 2375.13 1006.75 2374.59 1007.7C2371.18 1013.41 2366.35 1017.5 2360.09 1019.95C2353.84 1022.26 2347.64 1023.96 2341.52 1025.05C2335.53 1026.14 2331.18 1027.57 2328.46 1029.33C2312.68 1041.58 2300.09 1052.67 2290.7 1062.6C2281.45 1072.54 2276.82 1078.66 2276.82 1080.97C2276.82 1081.65 2277.16 1081.99 2277.84 1081.99C2299.48 1081.99 2313.36 1082.13 2319.48 1082.4C2325.6 1082.67 2329.96 1083.56 2332.54 1085.05C2335.26 1086.55 2338.05 1089 2340.91 1092.4C2344.18 1096.21 2350.09 1101.79 2358.67 1109.14C2363.02 1112.95 2365.2 1117.37 2365.2 1122.4C2365.2 1135.88 2350.91 1153.56 2322.34 1175.47C2290.9 1199.56 2262.6 1216.56 2237.43 1226.5C2211.3 1236.57 2193.28 1241.6 2183.34 1241.6Z" fill="white"/>
<path d="M68 1250.39L755 285.392M2539.49 1258.26L2125.49 478.258M1060.91 742.965L754.913 293.965M1060.57 735.505L1458.57 27.0679M1898.43 916.773L2125.43 471.336M1898.39 923.068L1458.39 34.0681" stroke="white" stroke-width="50"/>
</svg>
