<svg width="148" height="148" viewBox="0 0 148 148" fill="none" xmlns="http://www.w3.org/2000/svg">
<path d="M26.825 127.65C24.7694 128.472 22.8681 128.241 21.1208 126.956C19.3736 125.672 18.5 123.95 18.5 121.792V35.4583C18.5 34.1222 18.8854 32.9403 19.6562 31.9125C20.4271 30.8847 21.4806 30.1139 22.8167 29.6L55.5 18.5L92.5 31.45L121.175 20.35C123.231 19.5278 125.132 19.759 126.879 21.0438C128.626 22.3285 129.5 24.05 129.5 26.2083V78.1625C127.958 75.7986 126.134 73.6403 124.027 71.6875C121.92 69.7347 119.633 68.0389 117.167 66.6V35.15L98.6667 42.2417V61.6667C96.5083 61.6667 94.4014 61.8465 92.3458 62.2062C90.2903 62.566 88.2861 63.1056 86.3333 63.825V42.2417L61.6667 33.6083V114.238L26.825 127.65ZM30.8333 112.85L49.3333 105.758V33.6083L30.8333 39.775V112.85ZM107.377 107.917C109.69 105.861 110.897 102.778 111 98.6667C111.103 95.1722 109.947 92.2431 107.531 89.8792C105.116 87.5153 102.161 86.3333 98.6667 86.3333C95.1722 86.3333 92.2431 87.5153 89.8792 89.8792C87.5153 92.2431 86.3333 95.1722 86.3333 98.6667C86.3333 102.161 87.5153 105.09 89.8792 107.454C92.2431 109.818 95.1722 111 98.6667 111C102.161 111 105.065 109.972 107.377 107.917ZM98.6667 123.333C91.8833 123.333 86.0764 120.918 81.2458 116.088C76.4153 111.257 74 105.45 74 98.6667C74 91.8833 76.4153 86.0764 81.2458 81.2458C86.0764 76.4153 91.8833 74 98.6667 74C105.45 74 111.257 76.4153 116.088 81.2458C120.918 86.0764 123.333 91.8833 123.333 98.6667C123.333 101.031 123.051 103.266 122.485 105.373C121.92 107.48 121.072 109.458 119.942 111.308L135.667 127.033L127.033 135.667L111.308 119.942C109.458 121.072 107.48 121.92 105.373 122.485C103.266 123.051 101.031 123.333 98.6667 123.333Z" fill="#E3E3E3"/>
</svg>
