<svg width="2472" height="861" viewBox="0 0 2472 861" fill="none" xmlns="http://www.w3.org/2000/svg">
<path d="M721 472.125L1099.87 119.418M2084 475L1855.68 189.91M1268.58 286.661L1099.83 122.551M1268.39 283.934L1487.89 25.0005M1730.46 350.188L1855.65 187.381M1730.44 352.489L1487.79 27.5591" stroke="black" stroke-width="50" stroke-linecap="round"/>
<path d="M721 494.068L1104.32 134.306M2100 497L1869 206.209M1275.01 304.894L1104.27 137.502M1274.82 302.113L1496.89 38.0005M1742.31 369.692L1868.97 203.628M1742.29 372.038L1496.79 40.6102" stroke="white" stroke-width="50" stroke-linecap="round"/>
<path d="M1274.87 625.266C1289.58 620.579 1300.52 617.389 1307.68 615.696C1313.8 614.264 1318.29 612.896 1321.16 611.594C1324.02 610.162 1326.3 607.948 1327.99 604.954C1329.69 601.829 1331.7 596.816 1334.05 589.915C1339.52 574.159 1354.49 541.282 1378.97 491.282C1379.49 490.761 1379.75 490.175 1379.75 489.524L1379.56 488.743C1342.84 523.639 1307.81 569.016 1274.48 624.875L1274.87 625.266ZM1205.73 769.407C1203.51 769.407 1201.82 766.998 1200.65 762.18C1199.35 757.493 1197.85 750.136 1196.16 740.11C1195.38 735.032 1194.92 731.777 1194.79 730.344C1194.79 725.657 1196.03 719.928 1198.5 713.157C1205.27 694.928 1208.66 685.032 1208.66 683.469C1208.66 682.558 1208.4 681.907 1207.88 681.516C1181.31 677.089 1168.03 673.573 1168.03 670.969C1168.03 670.188 1168.75 669.277 1170.18 668.235L1183.07 657.883C1205.47 645.514 1218.88 639.329 1223.31 639.329C1224.74 639.329 1225.58 640.045 1225.84 641.477C1225.84 642.389 1225.97 643.04 1226.23 643.43C1239.13 623.248 1252.93 601.959 1267.64 579.563C1332.22 483.209 1376.04 435.032 1399.09 435.032C1400.39 435.032 1401.63 435.227 1402.8 435.618C1414 438.482 1422.2 439.915 1427.41 439.915C1430.14 440.045 1432.09 440.305 1433.27 440.696C1434.44 440.956 1435.02 441.868 1435.02 443.43C1435.02 444.862 1434.63 446.946 1433.85 449.68L1434.05 450.461C1434.05 452.805 1432.22 457.948 1428.58 465.891C1425.06 473.704 1420.57 483.339 1415.1 494.797C1404.42 516.412 1392.12 542.714 1378.19 573.704C1364.39 604.563 1357.03 627.935 1356.12 643.821C1356.12 646.165 1355.66 647.336 1354.75 647.336L1352.6 647.141C1351.82 647.141 1351.23 647.727 1350.84 648.899C1346.29 666.217 1344.01 678.131 1344.01 684.641C1344.01 687.506 1344.27 689.654 1344.79 691.086C1345.31 692.389 1345.96 693.235 1346.74 693.625C1347.52 694.016 1348.31 694.211 1349.09 694.211L1351.43 694.016C1351.82 694.016 1352.02 694.211 1352.02 694.602C1352.02 694.993 1351.63 695.839 1350.84 697.141C1347.72 702.089 1344.98 706.581 1342.64 710.618C1339 716.737 1335.94 721.555 1333.46 725.071C1331.12 728.586 1329.1 730.344 1327.41 730.344C1326.37 730.344 1325.45 729.563 1324.67 728C1319.98 719.667 1315.88 713.743 1312.37 710.227C1309.89 707.493 1307.88 704.823 1306.31 702.219C1304.88 699.615 1304.16 695.969 1304.16 691.282C1304.16 683.469 1306.64 670.383 1311.59 652.024C1311.59 651.503 1311.07 651.243 1310.02 651.243C1305.73 651.243 1294.53 654.563 1276.43 661.204C1259.5 667.454 1250.39 671.425 1249.09 673.118C1235.54 707.102 1228.77 727.284 1228.77 733.665C1228.77 736.79 1229.75 738.352 1231.7 738.352C1232.62 738.352 1233.07 738.482 1233.07 738.743C1233.07 739.003 1232.62 739.719 1231.7 740.891C1222.46 752.87 1216.27 760.618 1213.15 764.133C1210.02 767.649 1207.55 769.407 1205.73 769.407ZM1373.2 735.618C1372.15 735.618 1371.44 734.706 1371.05 732.883C1370.53 731.06 1369.68 726.894 1368.51 720.383C1367.73 715.826 1367.34 712.571 1367.34 710.618C1367.34 700.592 1372.87 682.362 1383.94 655.93C1394.88 629.368 1404.77 606.646 1413.63 587.766C1422.61 568.886 1431.01 552.805 1438.82 539.524C1446.63 526.112 1451.71 519.407 1454.06 519.407C1461.48 521.881 1468.12 523.118 1473.98 523.118C1475.54 523.118 1476.84 522.922 1477.88 522.532C1478.27 523.704 1479.38 524.29 1481.2 524.29C1483.16 524.29 1484.13 525.266 1484.13 527.219C1484.13 529.172 1485.04 530.344 1486.87 530.735C1488.04 531.125 1488.63 533.339 1488.63 537.375C1488.63 539.719 1488.23 544.211 1487.45 550.852C1486.8 557.493 1486.15 563.678 1485.5 569.407C1484.85 575.006 1482.9 584.25 1479.64 597.141C1476.39 610.032 1474.43 620.774 1473.78 629.368C1478.47 621.295 1489.73 599.875 1507.57 565.11C1529.58 521.881 1541.1 496.75 1542.14 489.719C1542.27 488.678 1542.73 487.701 1543.51 486.79C1544.42 485.878 1545.4 485.422 1546.44 485.422C1546.96 485.422 1547.48 485.618 1548 486.008C1561.02 497.467 1568.64 504.303 1570.85 506.516C1573.46 509.25 1574.76 511.659 1574.76 513.743C1574.76 515.696 1573.91 517.974 1572.22 520.579C1572.22 521.23 1550.41 564.394 1506.79 650.071C1489.47 684.185 1479.38 701.959 1476.52 703.391C1475.6 703.912 1472.28 704.628 1466.56 705.54C1454.71 708.144 1446.5 709.446 1441.95 709.446C1437.78 709.446 1434.65 708.209 1432.57 705.735C1430.49 703.261 1429.45 698.573 1429.45 691.672C1429.45 678.782 1434.26 649.29 1443.9 603.196H1443.31C1420.79 648.769 1409.52 672.141 1409.52 673.313C1409.52 673.704 1410.11 674.029 1411.28 674.29C1412.58 674.42 1413.23 674.875 1413.23 675.657C1413.23 676.178 1412.97 676.959 1412.45 678C1408.94 684.902 1406.2 690.761 1404.25 695.579C1401.78 701.568 1399.43 705.995 1397.22 708.86C1393.96 712.766 1391.16 716.217 1388.82 719.211C1379.97 730.149 1374.76 735.618 1373.2 735.618ZM1642.03 755.149C1641.51 755.149 1640.73 754.433 1639.69 753C1629.53 742.063 1623.35 734.967 1621.13 731.711C1619.05 728.456 1618.01 724.68 1618.01 720.383C1618.01 716.737 1618.59 711.855 1619.77 705.735C1620.42 702.089 1621.07 697.792 1621.72 692.844L1621.33 692.454C1605.05 708.209 1592.03 716.086 1582.27 716.086C1577.32 716.086 1572.83 713.938 1568.79 709.641C1557.98 698.053 1550.63 689.394 1546.72 683.665C1542.81 677.805 1540.86 670.839 1540.86 662.766C1540.86 653.912 1543.92 642.323 1550.04 628C1562.15 600.657 1576.73 577.675 1593.79 559.055C1610.98 540.435 1628.29 526.308 1645.74 516.672C1662.28 507.688 1676.28 503.196 1687.73 503.196C1704.01 503.196 1712.15 510.487 1712.15 525.071C1712.15 534.055 1708.89 545.318 1702.38 558.86C1697.83 568.886 1695.03 576.373 1693.98 581.321C1693.2 585.097 1692.36 586.985 1691.45 586.985C1691.06 586.985 1690.6 586.724 1690.08 586.204C1674.84 569.797 1667.23 559.316 1667.23 554.758C1667.23 552.545 1667.81 550.461 1668.98 548.508L1669.77 546.165C1668.33 546.165 1665.73 547.532 1661.95 550.266C1654.4 555.735 1648.41 560.487 1643.98 564.524C1613.52 592.258 1593.46 618.691 1583.83 643.821C1579.66 654.758 1577.58 663.287 1577.58 669.407C1577.58 673.313 1578.42 675.396 1580.12 675.657C1582.07 675.657 1590.99 667.714 1606.88 651.829C1618.07 640.5 1623.74 634.316 1623.87 633.274C1623.35 633.014 1622.63 632.818 1621.72 632.688C1620.03 632.688 1617.94 632.818 1615.47 633.079C1613.13 633.339 1611.04 633.469 1609.22 633.469C1607.27 633.339 1606.22 632.883 1606.09 632.102C1606.22 631.711 1609.22 626.178 1615.08 615.5C1617.94 610.422 1620.22 606.777 1621.91 604.563C1623.74 602.219 1626.02 600.657 1628.75 599.875C1631.48 598.964 1635.72 598.118 1641.45 597.336C1645.61 596.685 1650.89 595.774 1657.27 594.602C1672.24 591.086 1690.79 589.068 1712.93 588.547C1718.01 588.808 1721.52 590.631 1723.48 594.016C1725.43 597.402 1727.58 603.066 1729.92 611.008C1733.05 620.644 1734.61 625.722 1734.61 626.243C1734.61 626.894 1734.22 627.219 1733.44 627.219C1732.66 627.219 1731.48 627.089 1729.92 626.829C1728.49 626.438 1725.43 626.178 1720.74 626.047C1714.62 626.308 1706.22 626.568 1695.55 626.829C1685 627.089 1679.08 627.349 1677.77 627.61C1676.47 627.87 1675.56 628.652 1675.04 629.954C1663.06 667.063 1656.68 695.383 1655.9 714.915C1655.51 719.993 1654.92 723.378 1654.14 725.071C1648.67 737.05 1645.42 745.318 1644.38 749.875C1643.72 753.391 1642.94 755.149 1642.03 755.149ZM1759.31 714.329C1756.44 714.329 1752.27 713.482 1746.81 711.79C1741.34 710.097 1735.67 707.688 1729.81 704.563C1724.08 701.308 1719.14 697.662 1714.97 693.625C1710.93 689.459 1708.85 684.836 1708.72 679.758C1709.11 667.519 1713.8 653.326 1722.78 637.18L1723.37 635.813L1723.17 634.641H1718.68C1711.78 634.641 1708.33 633.86 1708.33 632.297C1708.33 630.995 1709.76 628.782 1712.63 625.657C1713.93 624.355 1716.14 621.685 1719.27 617.649C1725.26 609.316 1729.29 604.693 1731.38 603.782L1740.75 601.047C1743.22 600.266 1750.97 589.068 1763.99 567.454C1764.64 566.803 1765.82 564.98 1767.51 561.985V561.594C1763.99 562.245 1762.23 563.482 1762.23 565.305C1762.23 566.086 1761.78 566.477 1760.87 566.477C1758.26 566.217 1751.75 563.678 1741.34 558.86C1729.75 553.521 1723.89 549.42 1723.76 546.555C1723.76 545.774 1724.28 545.123 1725.32 544.602C1743.29 536.008 1763.67 529.498 1786.45 525.071C1812.1 520.123 1834.37 517.649 1853.25 517.649C1876.95 517.649 1888.93 520.839 1889.19 527.219C1888.93 530.214 1888.8 533.144 1888.8 536.008C1888.93 540.435 1889.25 544.407 1889.77 547.922C1890.29 551.308 1890.56 554.498 1890.56 557.493C1890.56 562.31 1888.8 564.719 1885.28 564.719C1880.72 564.719 1871.67 560.748 1858.13 552.805C1857.35 552.284 1855.98 552.024 1854.03 552.024C1851.17 552.024 1847.72 552.219 1843.68 552.61C1838.34 553.131 1830.98 553.652 1821.61 554.172C1814.97 554.433 1811.65 555.67 1811.65 557.883C1811.65 558.665 1811.84 559.771 1812.23 561.204C1812.76 562.506 1813.02 564.589 1813.02 567.454C1813.02 569.537 1812.5 572.076 1811.45 575.071C1810.67 577.284 1810.02 578.456 1809.5 578.586C1809.11 578.586 1808.59 578.391 1807.94 578C1807.42 577.61 1806.64 577.284 1805.59 577.024C1804.94 577.024 1803.51 578.652 1801.3 581.907C1799.47 584.511 1798.24 586.399 1797.59 587.571C1797.59 587.831 1798.3 587.961 1799.73 587.961C1802.99 587.571 1805.46 587.375 1807.16 587.375C1810.02 587.375 1812.1 588.222 1813.41 589.915C1814.84 591.477 1816.14 593.756 1817.31 596.75C1819.66 601.959 1823.04 607.428 1827.47 613.157C1829.55 615.891 1830.59 617.909 1830.59 619.211C1830.59 620.514 1828.38 621.23 1823.95 621.36L1820.44 621.165C1812.5 621.295 1804.62 621.49 1796.81 621.75C1789.12 621.881 1782.87 623.118 1778.06 625.461C1773.37 627.675 1768.75 632.753 1764.19 640.696C1759.76 648.508 1754.42 660.553 1748.17 676.829L1747.98 677.61C1748.24 679.563 1750 680.54 1753.25 680.54C1755.59 680.54 1757.48 680.149 1758.91 679.368C1778.45 667.128 1791.6 659.055 1798.37 655.149C1803.19 652.415 1806.64 651.047 1808.72 651.047C1810.67 651.047 1811.71 653 1811.84 656.907C1811.84 667.193 1812.23 674.55 1813.02 678.977L1813.21 681.711C1813.21 682.883 1812.82 683.99 1812.04 685.032C1810.35 687.245 1801.17 693.235 1784.5 703C1773.43 709.641 1765.03 713.417 1759.31 714.329ZM1972.87 713.352L1970.72 713.157C1948.97 709.771 1938.1 707.493 1938.1 706.321C1938.1 705.8 1938.23 705.409 1938.49 705.149C1938.36 704.237 1936.87 703.782 1934 703.782C1930.62 703.782 1925.47 704.368 1918.57 705.54C1889.79 708.534 1868.05 710.032 1853.34 710.032C1837.45 710.032 1822.28 708.665 1807.83 705.93C1805.75 705.67 1804.7 705.214 1804.7 704.563C1804.7 703.782 1805.48 702.415 1807.05 700.461C1809.65 697.597 1813.43 691.803 1818.38 683.079C1819.42 680.344 1820.59 678.261 1821.89 676.829C1823.19 675.396 1826.64 674.68 1832.24 674.68L1837.71 674.875C1840.58 675.136 1843.12 675.266 1845.33 675.266C1850.02 675.266 1852.69 674.42 1853.34 672.727C1853.34 664.264 1856.07 653.521 1861.54 640.5C1867.01 627.48 1876.38 607.558 1889.66 580.735C1919.74 518.756 1935.11 486.855 1935.76 485.032C1937.97 480.605 1939.34 478.391 1939.86 478.391C1941.16 478.391 1948.52 481.581 1961.93 487.961C1970 491.998 1974.1 494.862 1974.23 496.555C1974.23 497.467 1973.84 498.313 1973.06 499.094C1971.76 501.308 1971.11 503.847 1971.11 506.711L1961.15 526.243C1916.1 613.482 1893.57 661.073 1893.57 669.016C1893.57 669.797 1893.77 670.188 1894.16 670.188C1923.58 668.756 1939.86 668.04 1942.98 668.04C1946.76 668.04 1950.21 668.3 1953.34 668.821C1956.59 669.211 1958.87 670.579 1960.17 672.922C1971.37 691.021 1976.97 702.935 1976.97 708.665C1976.97 711.269 1975.6 712.831 1972.87 713.352ZM2016.9 714.329C2014.03 714.329 2009.87 713.482 2004.4 711.79C1998.93 710.097 1993.27 707.688 1987.41 704.563C1981.68 701.308 1976.73 697.662 1972.56 693.625C1968.53 689.459 1966.44 684.836 1966.31 679.758C1966.7 667.519 1971.39 653.326 1980.38 637.18L1980.96 635.813L1980.77 634.641H1976.27C1969.37 634.641 1965.92 633.86 1965.92 632.297C1965.92 630.995 1967.35 628.782 1970.22 625.657C1971.52 624.355 1973.73 621.685 1976.86 617.649C1982.85 609.316 1986.89 604.693 1988.97 603.782L1998.34 601.047C2000.82 600.266 2008.57 589.068 2021.59 567.454C2022.24 566.803 2023.41 564.98 2025.1 561.985V561.594C2021.59 562.245 2019.83 563.482 2019.83 565.305C2019.83 566.086 2019.37 566.477 2018.46 566.477C2015.86 566.217 2009.35 563.678 1998.93 558.86C1987.34 553.521 1981.48 549.42 1981.35 546.555C1981.35 545.774 1981.87 545.123 1982.91 544.602C2000.88 536.008 2021.26 529.498 2044.05 525.071C2069.7 520.123 2091.96 517.649 2110.84 517.649C2134.54 517.649 2146.52 520.839 2146.78 527.219C2146.52 530.214 2146.39 533.144 2146.39 536.008C2146.52 540.435 2146.85 544.407 2147.37 547.922C2147.89 551.308 2148.15 554.498 2148.15 557.493C2148.15 562.31 2146.39 564.719 2142.88 564.719C2138.32 564.719 2129.27 560.748 2115.73 552.805C2114.95 552.284 2113.58 552.024 2111.63 552.024C2108.76 552.024 2105.31 552.219 2101.27 552.61C2095.94 553.131 2088.58 553.652 2079.2 554.172C2072.56 554.433 2069.24 555.67 2069.24 557.883C2069.24 558.665 2069.44 559.771 2069.83 561.204C2070.35 562.506 2070.61 564.589 2070.61 567.454C2070.61 569.537 2070.09 572.076 2069.05 575.071C2068.27 577.284 2067.62 578.456 2067.09 578.586C2066.7 578.586 2066.18 578.391 2065.53 578C2065.01 577.61 2064.23 577.284 2063.19 577.024C2062.54 577.024 2061.1 578.652 2058.89 581.907C2057.07 584.511 2055.83 586.399 2055.18 587.571C2055.18 587.831 2055.9 587.961 2057.33 587.961C2060.58 587.571 2063.06 587.375 2064.75 587.375C2067.62 587.375 2069.7 588.222 2071 589.915C2072.43 591.477 2073.73 593.756 2074.91 596.75C2077.25 601.959 2080.64 607.428 2085.06 613.157C2087.15 615.891 2088.19 617.909 2088.19 619.211C2088.19 620.514 2085.97 621.23 2081.55 621.36L2078.03 621.165C2070.09 621.295 2062.21 621.49 2054.4 621.75C2046.72 621.881 2040.47 623.118 2035.65 625.461C2030.96 627.675 2026.34 632.753 2021.78 640.696C2017.35 648.508 2012.02 660.553 2005.77 676.829L2005.57 677.61C2005.83 679.563 2007.59 680.54 2010.84 680.54C2013.19 680.54 2015.08 680.149 2016.51 679.368C2036.04 667.128 2049.19 659.055 2055.96 655.149C2060.78 652.415 2064.23 651.047 2066.31 651.047C2068.27 651.047 2069.31 653 2069.44 656.907C2069.44 667.193 2069.83 674.55 2070.61 678.977L2070.81 681.711C2070.81 682.883 2070.41 683.99 2069.63 685.032C2067.94 687.245 2058.76 693.235 2042.09 703C2031.03 709.641 2022.63 713.417 2016.9 714.329ZM2068.94 743.821C2066.98 743.821 2066.01 743.365 2066.01 742.454C2066.01 740.631 2067.57 736.269 2070.7 729.368L2077.92 711.008C2078.57 709.316 2079.62 707.558 2081.05 705.735C2082.48 703.782 2083.91 702.805 2085.34 702.805C2085.87 702.805 2086.45 703.131 2087.1 703.782C2087.62 704.303 2088.73 704.563 2090.42 704.563C2096.02 704.563 2105.59 700.852 2119.13 693.43C2132.81 686.008 2147 677.024 2161.71 666.477C2176.56 655.8 2189.32 645.188 2199.99 634.641C2200.51 634.12 2200.77 633.599 2200.77 633.079C2200.77 630.995 2197.71 629.237 2191.59 627.805C2188.47 627.284 2179.29 627.024 2164.06 627.024C2145.44 627.024 2132.61 625.982 2125.58 623.899C2118.55 621.685 2115.03 617.779 2115.03 612.18C2115.03 607.493 2117.77 598.964 2123.23 586.594L2128.7 572.922C2133 563.027 2141.14 552.219 2153.12 540.5C2165.23 528.782 2177.86 518.365 2191.01 509.25C2207.67 497.662 2218.87 491.868 2224.6 491.868C2226.16 491.868 2227.47 492.389 2228.51 493.43C2229.68 494.342 2230.98 495.579 2232.41 497.141C2234.37 500.006 2237.82 503.456 2242.77 507.493C2249.41 512.571 2252.73 515.891 2252.73 517.454C2252.73 518.235 2252.47 519.081 2251.95 519.993C2248.69 525.461 2244.07 529.368 2238.08 531.711C2232.09 533.925 2226.16 535.553 2220.31 536.594C2214.58 537.636 2210.41 539.003 2207.81 540.696C2192.7 552.415 2180.66 563.027 2171.67 572.532C2162.82 582.037 2158.39 587.896 2158.39 590.11C2158.39 590.761 2158.72 591.086 2159.37 591.086C2180.07 591.086 2193.35 591.217 2199.21 591.477C2205.07 591.737 2209.24 592.584 2211.71 594.016C2214.32 595.448 2216.98 597.792 2219.72 601.047C2222.84 604.693 2228.51 610.032 2236.71 617.063C2240.88 620.709 2242.96 624.941 2242.96 629.758C2242.96 642.649 2229.29 659.576 2201.95 680.54C2171.87 703.586 2144.78 719.862 2120.7 729.368C2095.7 739.003 2078.44 743.821 2068.94 743.821Z" fill="black"/>
<path d="M1305.69 625.266C1320.4 620.579 1331.34 617.389 1338.5 615.696C1344.62 614.264 1349.11 612.896 1351.98 611.594C1354.84 610.162 1357.12 607.948 1358.82 604.954C1360.51 601.829 1362.53 596.816 1364.87 589.915C1370.34 574.159 1385.31 541.282 1409.79 491.282C1410.31 490.761 1410.57 490.175 1410.57 489.524L1410.38 488.743C1373.66 523.639 1338.63 569.016 1305.3 624.875L1305.69 625.266ZM1236.55 769.407C1234.34 769.407 1232.64 766.998 1231.47 762.18C1230.17 757.493 1228.67 750.136 1226.98 740.11C1226.2 735.032 1225.74 731.777 1225.61 730.344C1225.61 725.657 1226.85 719.928 1229.32 713.157C1236.09 694.928 1239.48 685.032 1239.48 683.469C1239.48 682.558 1239.22 681.907 1238.7 681.516C1212.14 677.089 1198.85 673.573 1198.85 670.969C1198.85 670.188 1199.57 669.277 1201 668.235L1213.89 657.883C1236.29 645.514 1249.7 639.329 1254.13 639.329C1255.56 639.329 1256.41 640.045 1256.67 641.477C1256.67 642.389 1256.8 643.04 1257.06 643.43C1269.95 623.248 1283.75 601.959 1298.46 579.563C1363.05 483.209 1406.86 435.032 1429.91 435.032C1431.21 435.032 1432.45 435.227 1433.62 435.618C1444.82 438.482 1453.02 439.915 1458.23 439.915C1460.96 440.045 1462.92 440.305 1464.09 440.696C1465.26 440.956 1465.85 441.868 1465.85 443.43C1465.85 444.862 1465.46 446.946 1464.67 449.68L1464.87 450.461C1464.87 452.805 1463.05 457.948 1459.4 465.891C1455.89 473.704 1451.39 483.339 1445.92 494.797C1435.25 516.412 1422.94 542.714 1409.01 573.704C1395.21 604.563 1387.85 627.935 1386.94 643.821C1386.94 646.165 1386.48 647.336 1385.57 647.336L1383.42 647.141C1382.64 647.141 1382.06 647.727 1381.67 648.899C1377.11 666.217 1374.83 678.131 1374.83 684.641C1374.83 687.506 1375.09 689.654 1375.61 691.086C1376.13 692.389 1376.78 693.235 1377.57 693.625C1378.35 694.016 1379.13 694.211 1379.91 694.211L1382.25 694.016C1382.64 694.016 1382.84 694.211 1382.84 694.602C1382.84 694.993 1382.45 695.839 1381.67 697.141C1378.54 702.089 1375.81 706.581 1373.46 710.618C1369.82 716.737 1366.76 721.555 1364.28 725.071C1361.94 728.586 1359.92 730.344 1358.23 730.344C1357.19 730.344 1356.28 729.563 1355.49 728C1350.81 719.667 1346.71 713.743 1343.19 710.227C1340.72 707.493 1338.7 704.823 1337.14 702.219C1335.7 699.615 1334.99 695.969 1334.99 691.282C1334.99 683.469 1337.46 670.383 1342.41 652.024C1342.41 651.503 1341.89 651.243 1340.85 651.243C1336.55 651.243 1325.35 654.563 1307.25 661.204C1290.33 667.454 1281.21 671.425 1279.91 673.118C1266.37 707.102 1259.6 727.284 1259.6 733.665C1259.6 736.79 1260.57 738.352 1262.53 738.352C1263.44 738.352 1263.89 738.482 1263.89 738.743C1263.89 739.003 1263.44 739.719 1262.53 740.891C1253.28 752.87 1247.1 760.618 1243.97 764.133C1240.85 767.649 1238.37 769.407 1236.55 769.407ZM1404.02 735.618C1402.98 735.618 1402.26 734.706 1401.87 732.883C1401.35 731.06 1400.5 726.894 1399.33 720.383C1398.55 715.826 1398.16 712.571 1398.16 710.618C1398.16 700.592 1403.69 682.362 1414.76 655.93C1425.7 629.368 1435.59 606.646 1444.45 587.766C1453.43 568.886 1461.83 552.805 1469.64 539.524C1477.46 526.112 1482.53 519.407 1484.88 519.407C1492.3 521.881 1498.94 523.118 1504.8 523.118C1506.36 523.118 1507.66 522.922 1508.71 522.532C1509.1 523.704 1510.2 524.29 1512.03 524.29C1513.98 524.29 1514.96 525.266 1514.96 527.219C1514.96 529.172 1515.87 530.344 1517.69 530.735C1518.86 531.125 1519.45 533.339 1519.45 537.375C1519.45 539.719 1519.06 544.211 1518.28 550.852C1517.63 557.493 1516.97 563.678 1516.32 569.407C1515.67 575.006 1513.72 584.25 1510.46 597.141C1507.21 610.032 1505.26 620.774 1504.6 629.368C1509.29 621.295 1520.55 599.875 1538.39 565.11C1560.4 521.881 1571.92 496.75 1572.96 489.719C1573.09 488.678 1573.55 487.701 1574.33 486.79C1575.24 485.878 1576.22 485.422 1577.26 485.422C1577.78 485.422 1578.3 485.618 1578.82 486.008C1591.84 497.467 1599.46 504.303 1601.67 506.516C1604.28 509.25 1605.58 511.659 1605.58 513.743C1605.58 515.696 1604.73 517.974 1603.04 520.579C1603.04 521.23 1581.23 564.394 1537.61 650.071C1520.29 684.185 1510.2 701.959 1507.34 703.391C1506.43 703.912 1503.11 704.628 1497.38 705.54C1485.53 708.144 1477.33 709.446 1472.77 709.446C1468.6 709.446 1465.48 708.209 1463.39 705.735C1461.31 703.261 1460.27 698.573 1460.27 691.672C1460.27 678.782 1465.09 649.29 1474.72 603.196H1474.14C1451.61 648.769 1440.35 672.141 1440.35 673.313C1440.35 673.704 1440.93 674.029 1442.1 674.29C1443.41 674.42 1444.06 674.875 1444.06 675.657C1444.06 676.178 1443.8 676.959 1443.28 678C1439.76 684.902 1437.03 690.761 1435.07 695.579C1432.6 701.568 1430.26 705.995 1428.04 708.86C1424.79 712.766 1421.99 716.217 1419.64 719.211C1410.79 730.149 1405.58 735.618 1404.02 735.618ZM1672.85 755.149C1672.33 755.149 1671.55 754.433 1670.51 753C1660.35 742.063 1654.17 734.967 1651.96 731.711C1649.87 728.456 1648.83 724.68 1648.83 720.383C1648.83 716.737 1649.42 711.855 1650.59 705.735C1651.24 702.089 1651.89 697.792 1652.54 692.844L1652.15 692.454C1635.88 708.209 1622.85 716.086 1613.09 716.086C1608.14 716.086 1603.65 713.938 1599.61 709.641C1588.8 698.053 1581.45 689.394 1577.54 683.665C1573.64 677.805 1571.68 670.839 1571.68 662.766C1571.68 653.912 1574.74 642.323 1580.86 628C1592.97 600.657 1607.55 577.675 1624.61 559.055C1641.8 540.435 1659.12 526.308 1676.57 516.672C1693.1 507.688 1707.1 503.196 1718.56 503.196C1734.83 503.196 1742.97 510.487 1742.97 525.071C1742.97 534.055 1739.72 545.318 1733.21 558.86C1728.65 568.886 1725.85 576.373 1724.81 581.321C1724.03 585.097 1723.18 586.985 1722.27 586.985C1721.88 586.985 1721.42 586.724 1720.9 586.204C1705.67 569.797 1698.05 559.316 1698.05 554.758C1698.05 552.545 1698.64 550.461 1699.81 548.508L1700.59 546.165C1699.16 546.165 1696.55 547.532 1692.78 550.266C1685.22 555.735 1679.23 560.487 1674.81 564.524C1644.34 592.258 1624.29 618.691 1614.65 643.821C1610.48 654.758 1608.4 663.287 1608.4 669.407C1608.4 673.313 1609.25 675.396 1610.94 675.657C1612.89 675.657 1621.81 667.714 1637.7 651.829C1648.9 640.5 1654.56 634.316 1654.69 633.274C1654.17 633.014 1653.45 632.818 1652.54 632.688C1650.85 632.688 1648.77 632.818 1646.29 633.079C1643.95 633.339 1641.86 633.469 1640.04 633.469C1638.09 633.339 1637.05 632.883 1636.92 632.102C1637.05 631.711 1640.04 626.178 1645.9 615.5C1648.77 610.422 1651.04 606.777 1652.74 604.563C1654.56 602.219 1656.84 600.657 1659.57 599.875C1662.31 598.964 1666.54 598.118 1672.27 597.336C1676.44 596.685 1681.71 595.774 1688.09 594.602C1703.06 591.086 1721.62 589.068 1743.75 588.547C1748.83 588.808 1752.35 590.631 1754.3 594.016C1756.25 597.402 1758.4 603.066 1760.74 611.008C1763.87 620.644 1765.43 625.722 1765.43 626.243C1765.43 626.894 1765.04 627.219 1764.26 627.219C1763.48 627.219 1762.31 627.089 1760.74 626.829C1759.31 626.438 1756.25 626.178 1751.57 626.047C1745.45 626.308 1737.05 626.568 1726.37 626.829C1715.82 627.089 1709.9 627.349 1708.6 627.61C1707.29 627.87 1706.38 628.652 1705.86 629.954C1693.88 667.063 1687.5 695.383 1686.72 714.915C1686.33 719.993 1685.74 723.378 1684.96 725.071C1679.49 737.05 1676.24 745.318 1675.2 749.875C1674.55 753.391 1673.77 755.149 1672.85 755.149ZM1790.13 714.329C1787.26 714.329 1783.1 713.482 1777.63 711.79C1772.16 710.097 1766.49 707.688 1760.64 704.563C1754.91 701.308 1749.96 697.662 1745.79 693.625C1741.76 689.459 1739.67 684.836 1739.54 679.758C1739.93 667.519 1744.62 653.326 1753.6 637.18L1754.19 635.813L1753.99 634.641H1749.5C1742.6 634.641 1739.15 633.86 1739.15 632.297C1739.15 630.995 1740.58 628.782 1743.45 625.657C1744.75 624.355 1746.96 621.685 1750.09 617.649C1756.08 609.316 1760.11 604.693 1762.2 603.782L1771.57 601.047C1774.05 600.266 1781.79 589.068 1794.82 567.454C1795.47 566.803 1796.64 564.98 1798.33 561.985V561.594C1794.82 562.245 1793.06 563.482 1793.06 565.305C1793.06 566.086 1792.6 566.477 1791.69 566.477C1789.09 566.217 1782.58 563.678 1772.16 558.86C1760.57 553.521 1754.71 549.42 1754.58 546.555C1754.58 545.774 1755.1 545.123 1756.14 544.602C1774.11 536.008 1794.49 529.498 1817.28 525.071C1842.93 520.123 1865.19 517.649 1884.07 517.649C1907.77 517.649 1919.75 520.839 1920.01 527.219C1919.75 530.214 1919.62 533.144 1919.62 536.008C1919.75 540.435 1920.08 544.407 1920.6 547.922C1921.12 551.308 1921.38 554.498 1921.38 557.493C1921.38 562.31 1919.62 564.719 1916.1 564.719C1911.55 564.719 1902.5 560.748 1888.96 552.805C1888.17 552.284 1886.81 552.024 1884.85 552.024C1881.99 552.024 1878.54 552.219 1874.5 552.61C1869.16 553.131 1861.81 553.652 1852.43 554.172C1845.79 554.433 1842.47 555.67 1842.47 557.883C1842.47 558.665 1842.67 559.771 1843.06 561.204C1843.58 562.506 1843.84 564.589 1843.84 567.454C1843.84 569.537 1843.32 572.076 1842.28 575.071C1841.49 577.284 1840.84 578.456 1840.32 578.586C1839.93 578.586 1839.41 578.391 1838.76 578C1838.24 577.61 1837.46 577.284 1836.42 577.024C1835.77 577.024 1834.33 578.652 1832.12 581.907C1830.3 584.511 1829.06 586.399 1828.41 587.571C1828.41 587.831 1829.13 587.961 1830.56 587.961C1833.81 587.571 1836.29 587.375 1837.98 587.375C1840.84 587.375 1842.93 588.222 1844.23 589.915C1845.66 591.477 1846.96 593.756 1848.14 596.75C1850.48 601.959 1853.86 607.428 1858.29 613.157C1860.38 615.891 1861.42 617.909 1861.42 619.211C1861.42 620.514 1859.2 621.23 1854.78 621.36L1851.26 621.165C1843.32 621.295 1835.44 621.49 1827.63 621.75C1819.95 621.881 1813.7 623.118 1808.88 625.461C1804.19 627.675 1799.57 632.753 1795.01 640.696C1790.58 648.508 1785.24 660.553 1778.99 676.829L1778.8 677.61C1779.06 679.563 1780.82 680.54 1784.07 680.54C1786.42 680.54 1788.3 680.149 1789.74 679.368C1809.27 667.128 1822.42 659.055 1829.19 655.149C1834.01 652.415 1837.46 651.047 1839.54 651.047C1841.49 651.047 1842.54 653 1842.67 656.907C1842.67 667.193 1843.06 674.55 1843.84 678.977L1844.03 681.711C1844.03 682.883 1843.64 683.99 1842.86 685.032C1841.17 687.245 1831.99 693.235 1815.32 703C1804.26 709.641 1795.86 713.417 1790.13 714.329ZM2003.69 713.352L2001.54 713.157C1979.8 709.771 1968.92 707.493 1968.92 706.321C1968.92 705.8 1969.05 705.409 1969.32 705.149C1969.19 704.237 1967.69 703.782 1964.82 703.782C1961.44 703.782 1956.29 704.368 1949.39 705.54C1920.62 708.534 1898.87 710.032 1884.16 710.032C1868.27 710.032 1853.1 708.665 1838.65 705.93C1836.57 705.67 1835.53 705.214 1835.53 704.563C1835.53 703.782 1836.31 702.415 1837.87 700.461C1840.47 697.597 1844.25 691.803 1849.2 683.079C1850.24 680.344 1851.41 678.261 1852.71 676.829C1854.02 675.396 1857.47 674.68 1863.07 674.68L1868.53 674.875C1871.4 675.136 1873.94 675.266 1876.15 675.266C1880.84 675.266 1883.51 674.42 1884.16 672.727C1884.16 664.264 1886.89 653.521 1892.36 640.5C1897.83 627.48 1907.21 607.558 1920.49 580.735C1950.57 518.756 1965.93 486.855 1966.58 485.032C1968.79 480.605 1970.16 478.391 1970.68 478.391C1971.98 478.391 1979.34 481.581 1992.75 487.961C2000.83 491.998 2004.93 494.862 2005.06 496.555C2005.06 497.467 2004.67 498.313 2003.89 499.094C2002.58 501.308 2001.93 503.847 2001.93 506.711L1991.97 526.243C1946.92 613.482 1924.39 661.073 1924.39 669.016C1924.39 669.797 1924.59 670.188 1924.98 670.188C1954.41 668.756 1970.68 668.04 1973.81 668.04C1977.58 668.04 1981.03 668.3 1984.16 668.821C1987.41 669.211 1989.69 670.579 1990.99 672.922C2002.19 691.021 2007.79 702.935 2007.79 708.665C2007.79 711.269 2006.42 712.831 2003.69 713.352ZM2047.72 714.329C2044.86 714.329 2040.69 713.482 2035.22 711.79C2029.75 710.097 2024.09 707.688 2018.23 704.563C2012.5 701.308 2007.55 697.662 2003.39 693.625C1999.35 689.459 1997.27 684.836 1997.14 679.758C1997.53 667.519 2002.21 653.326 2011.2 637.18L2011.78 635.813L2011.59 634.641H2007.1C2000.2 634.641 1996.74 633.86 1996.74 632.297C1996.74 630.995 1998.18 628.782 2001.04 625.657C2002.34 624.355 2004.56 621.685 2007.68 617.649C2013.67 609.316 2017.71 604.693 2019.79 603.782L2029.17 601.047C2031.64 600.266 2039.39 589.068 2052.41 567.454C2053.06 566.803 2054.23 564.98 2055.92 561.985V561.594C2052.41 562.245 2050.65 563.482 2050.65 565.305C2050.65 566.086 2050.2 566.477 2049.28 566.477C2046.68 566.217 2040.17 563.678 2029.75 558.86C2018.16 553.521 2012.3 549.42 2012.17 546.555C2012.17 545.774 2012.7 545.123 2013.74 544.602C2031.71 536.008 2052.08 529.498 2074.87 525.071C2100.52 520.123 2122.79 517.649 2141.67 517.649C2165.36 517.649 2177.34 520.839 2177.6 527.219C2177.34 530.214 2177.21 533.144 2177.21 536.008C2177.34 540.435 2177.67 544.407 2178.19 547.922C2178.71 551.308 2178.97 554.498 2178.97 557.493C2178.97 562.31 2177.21 564.719 2173.7 564.719C2169.14 564.719 2160.09 560.748 2146.55 552.805C2145.77 552.284 2144.4 552.024 2142.45 552.024C2139.58 552.024 2136.13 552.219 2132.1 552.61C2126.76 553.131 2119.4 553.652 2110.03 554.172C2103.39 554.433 2100.07 555.67 2100.07 557.883C2100.07 558.665 2100.26 559.771 2100.65 561.204C2101.17 562.506 2101.43 564.589 2101.43 567.454C2101.43 569.537 2100.91 572.076 2099.87 575.071C2099.09 577.284 2098.44 578.456 2097.92 578.586C2097.53 578.586 2097.01 578.391 2096.35 578C2095.83 577.61 2095.05 577.284 2094.01 577.024C2093.36 577.024 2091.93 578.652 2089.71 581.907C2087.89 584.511 2086.65 586.399 2086 587.571C2086 587.831 2086.72 587.961 2088.15 587.961C2091.41 587.571 2093.88 587.375 2095.57 587.375C2098.44 587.375 2100.52 588.222 2101.82 589.915C2103.26 591.477 2104.56 593.756 2105.73 596.75C2108.07 601.959 2111.46 607.428 2115.89 613.157C2117.97 615.891 2119.01 617.909 2119.01 619.211C2119.01 620.514 2116.8 621.23 2112.37 621.36L2108.85 621.165C2100.91 621.295 2093.03 621.49 2085.22 621.75C2077.54 621.881 2071.29 623.118 2066.47 625.461C2061.78 627.675 2057.16 632.753 2052.6 640.696C2048.18 648.508 2042.84 660.553 2036.59 676.829L2036.39 677.61C2036.65 679.563 2038.41 680.54 2041.67 680.54C2044.01 680.54 2045.9 680.149 2047.33 679.368C2066.86 667.128 2080.01 659.055 2086.78 655.149C2091.6 652.415 2095.05 651.047 2097.14 651.047C2099.09 651.047 2100.13 653 2100.26 656.907C2100.26 667.193 2100.65 674.55 2101.43 678.977L2101.63 681.711C2101.63 682.883 2101.24 683.99 2100.46 685.032C2098.76 687.245 2089.58 693.235 2072.92 703C2061.85 709.641 2053.45 713.417 2047.72 714.329ZM2099.76 743.821C2097.81 743.821 2096.83 743.365 2096.83 742.454C2096.83 740.631 2098.39 736.269 2101.52 729.368L2108.74 711.008C2109.4 709.316 2110.44 707.558 2111.87 705.735C2113.3 703.782 2114.73 702.805 2116.17 702.805C2116.69 702.805 2117.27 703.131 2117.92 703.782C2118.45 704.303 2119.55 704.563 2121.24 704.563C2126.84 704.563 2136.41 700.852 2149.96 693.43C2163.63 686.008 2177.82 677.024 2192.53 666.477C2207.38 655.8 2220.14 645.188 2230.82 634.641C2231.34 634.12 2231.6 633.599 2231.6 633.079C2231.6 630.995 2228.54 629.237 2222.42 627.805C2219.29 627.284 2210.11 627.024 2194.88 627.024C2176.26 627.024 2163.43 625.982 2156.4 623.899C2149.37 621.685 2145.85 617.779 2145.85 612.18C2145.85 607.493 2148.59 598.964 2154.06 586.594L2159.53 572.922C2163.82 563.027 2171.96 552.219 2183.94 540.5C2196.05 528.782 2208.68 518.365 2221.83 509.25C2238.5 497.662 2249.7 491.868 2255.42 491.868C2256.99 491.868 2258.29 492.389 2259.33 493.43C2260.5 494.342 2261.8 495.579 2263.24 497.141C2265.19 500.006 2268.64 503.456 2273.59 507.493C2280.23 512.571 2283.55 515.891 2283.55 517.454C2283.55 518.235 2283.29 519.081 2282.77 519.993C2279.51 525.461 2274.89 529.368 2268.9 531.711C2262.91 533.925 2256.99 535.553 2251.13 536.594C2245.4 537.636 2241.23 539.003 2238.63 540.696C2223.52 552.415 2211.48 563.027 2202.49 572.532C2193.64 582.037 2189.21 587.896 2189.21 590.11C2189.21 590.761 2189.54 591.086 2190.19 591.086C2210.89 591.086 2224.17 591.217 2230.03 591.477C2235.89 591.737 2240.06 592.584 2242.53 594.016C2245.14 595.448 2247.81 597.792 2250.54 601.047C2253.67 604.693 2259.33 610.032 2267.53 617.063C2271.7 620.709 2273.78 624.941 2273.78 629.758C2273.78 642.649 2260.11 659.576 2232.77 680.54C2202.69 703.586 2175.61 719.862 2151.52 729.368C2126.52 739.003 2109.27 743.821 2099.76 743.821Z" fill="white"/>
<path d="M403.199 803.782C401.507 803.782 396.949 801.373 389.527 796.555L373.121 786.985C371.168 785.683 370.191 782.818 370.191 778.391C370.191 760.162 394.41 690.696 442.848 569.993L449.684 554.172C448.251 554.303 442.717 561.008 433.082 574.29C428.395 580.8 423.512 587.375 418.434 594.016C405.934 610.292 397.014 618.43 391.676 618.43C390.895 618.43 390.178 618.235 389.527 617.844C383.928 614.589 379.046 611.92 374.879 609.836C367.848 606.581 362.77 603.456 359.645 600.461C356.52 597.467 354.957 592.454 354.957 585.422C354.957 579.042 356.064 569.862 358.277 557.883C356.194 560.878 346.103 587.31 328.004 637.18C323.056 650.201 317.913 663.482 312.574 677.024C299.814 709.446 291.48 725.657 287.574 725.657C287.053 725.657 286.598 725.396 286.207 724.875C277.874 712.766 272.535 705.409 270.191 702.805C268.499 700.592 267.652 699.224 267.652 698.704C269.866 689.719 287.053 643.105 319.215 558.86C341.09 505.474 356.194 477.61 364.527 475.266C366.741 474.745 372.079 470.904 380.543 463.743C383.408 460.878 385.491 459.446 386.793 459.446C388.355 459.446 389.267 461.399 389.527 465.305C390.178 469.862 391.415 472.206 393.238 472.336C395.712 472.597 396.949 473.053 396.949 473.704C396.949 474.355 396.624 475.201 395.973 476.243C395.452 477.154 394.866 478.456 394.215 480.149C393.564 481.842 393.238 483.925 393.238 486.399C393.238 487.961 393.434 489.654 393.824 491.477C394.996 497.727 395.582 504.823 395.582 512.766C395.582 524.745 394.475 540.24 392.262 559.25C391.741 563.938 391.48 566.998 391.48 568.43C394.996 564.915 399.814 558.99 405.934 550.657C430.543 515.5 463.876 479.823 505.934 443.625C509.84 439.719 512.509 437.766 513.941 437.766C515.634 437.766 517.001 439.98 518.043 444.407C519.215 448.704 520.257 456.842 521.168 468.821C521.168 477.154 518.173 488.547 512.184 503C506.324 517.454 499.033 534.12 490.309 553C477.548 580.214 460.882 621.555 440.309 677.024C419.866 732.493 408.082 773.834 404.957 801.047C404.957 802.87 404.371 803.782 403.199 803.782ZM524.574 719.211C524.053 719.211 523.467 719.081 522.816 718.821C517.348 715.175 509.34 711.073 498.793 706.516C498.142 706.386 497.816 705.605 497.816 704.172C497.816 698.443 501.983 683.86 510.316 660.422C518.65 636.985 526.918 616.217 535.121 598.118C543.454 580.019 550.421 566.086 556.02 556.321C556.28 555.8 556.54 555.084 556.801 554.172C553.415 554.303 542.348 556.256 523.598 560.032L512.074 561.985C510.902 561.985 509.73 561.594 508.559 560.813C506.475 559.381 501.072 553.847 492.348 544.211C487.27 538.873 484.73 535.943 484.73 535.422C484.73 534.641 485.967 533.99 488.441 533.469C490.915 532.948 494.626 531.711 499.574 529.758C513.897 523.899 544.496 517.389 591.371 510.227C614.548 506.581 631.54 504.758 642.348 504.758C648.988 504.758 652.699 505.605 653.48 507.297C652.96 511.724 652.048 518.43 650.746 527.415C648.533 541.477 645.342 548.639 641.176 548.899C639.743 548.899 638.246 547.987 636.684 546.165C635.772 544.993 634.21 544.407 631.996 544.407C629.522 544.407 626.007 544.667 621.449 545.188C620.277 545.448 616.046 545.969 608.754 546.75C601.592 547.532 597.686 548.248 597.035 548.899C596.514 549.42 596.254 550.201 596.254 551.243C595.863 553.717 594.691 556.711 592.738 560.227C567.999 603.326 548.402 649.55 533.949 698.899C531.866 705.54 530.173 710.618 528.871 714.133C527.569 717.519 526.137 719.211 524.574 719.211ZM642.824 704.563C642.173 704.563 641.848 703.782 641.848 702.219C641.848 700.657 641.783 698.899 641.652 696.946C641.392 693.04 641.262 689.329 641.262 685.813C641.262 667.584 645.949 652.089 655.324 639.329C655.585 639.068 655.91 638.938 656.301 638.938C657.082 638.938 664.439 644.667 678.371 656.125C682.017 659.12 683.84 661.073 683.84 661.985C683.84 662.636 683.319 663.482 682.277 664.524C678.892 669.081 675.637 676.243 672.512 686.008C672.251 686.92 671.926 687.636 671.535 688.157C671.145 688.678 669.777 689.524 667.434 690.696C664.439 691.998 657.147 696.099 645.559 703C644.257 704.042 643.345 704.563 642.824 704.563ZM656.582 778.782H656.387C655.605 778.782 654.889 778.391 654.238 777.61C650.462 771.881 647.142 767.128 644.277 763.352C638.809 756.321 636.074 751.633 636.074 749.29V748.899C636.074 745.644 639.199 742.974 645.449 740.891C650.788 738.938 669.538 734.055 701.699 726.243V726.047C701.699 720.448 709.251 699.875 724.355 664.329C728.913 654.172 747.533 614.068 780.215 544.016C815.501 468.495 833.6 430.67 834.512 430.54C836.986 430.67 839.395 430.735 841.738 430.735H845.449C849.746 430.474 854.368 430.019 859.316 429.368C861.009 429.237 862.507 429.172 863.809 429.172C865.241 429.172 866.673 429.303 868.105 429.563C869.668 429.693 870.514 430.865 870.645 433.079V433.469C870.645 436.464 868.887 441.933 865.371 449.875C861.855 457.818 855.931 470.123 847.598 486.79C830.671 521.165 807.298 570.579 777.48 635.032C755.475 682.558 744.473 709.381 744.473 715.5V715.696C744.473 716.217 744.668 716.477 745.059 716.477H745.449L753.848 715.305C787.832 708.925 813.223 705.409 830.02 704.758C832.493 704.628 834.772 704.563 836.855 704.563C849.225 704.563 855.605 706.516 855.996 710.422L855.801 712.18C855.41 713.482 855.02 715.175 854.629 717.258C849.29 737.831 844.473 749.094 840.176 751.047C839.915 751.047 839.59 750.722 839.199 750.071C838.809 749.42 837.246 748.378 834.512 746.946C830.085 744.602 823.184 743.43 813.809 743.43C812.116 743.43 810.293 743.495 808.34 743.625C779.303 744.797 736.27 753.521 679.238 769.797C677.546 770.448 676.374 771.62 675.723 773.313C674.941 775.527 672.858 776.959 669.473 777.61L656.582 778.782ZM872.684 680.735C877.111 680.735 884.207 675.201 893.973 664.133C903.738 653.066 913.569 639.133 923.465 622.336C933.361 605.409 941.238 587.831 947.098 569.602C947.228 569.081 947.293 568.365 947.293 567.454C947.293 565.24 946.902 562.115 946.121 558.079C945.34 554.042 944.363 550.396 943.191 547.141C942.02 543.886 940.913 542.258 939.871 542.258L939.285 542.454C934.598 546.23 932.254 548.899 932.254 550.461C932.254 551.373 933.165 552.349 934.988 553.391C937.723 555.084 939.09 557.623 939.09 561.008C939.09 562.441 938.829 563.417 938.309 563.938C937.788 564.459 934.728 565.435 929.129 566.868C923.009 568.17 919.559 569.016 918.777 569.407C917.996 569.407 916.694 570.644 914.871 573.118C912.137 576.633 910.77 578.977 910.77 580.149C910.77 581.06 911.03 581.972 911.551 582.883C912.072 583.665 912.332 584.25 912.332 584.641C911.941 585.422 911.551 585.813 911.16 585.813L909.793 585.618C908.361 585.618 906.603 587.05 904.52 589.915C901.915 593.3 897.684 600.852 891.824 612.571C876.59 643.821 868.973 664.524 868.973 674.68C868.973 678.717 870.21 680.735 872.684 680.735ZM861.355 720.579C855.887 720.579 851.069 719.472 846.902 717.258C837.658 712.31 833.035 702.089 833.035 686.594C833.035 674.875 835.249 661.139 839.676 645.383C843.973 629.628 849.702 613.547 856.863 597.141C864.155 580.735 872.228 565.566 881.082 551.633C889.936 537.571 898.986 526.178 908.23 517.454C917.605 508.599 926.395 504.172 934.598 504.172C938.764 504.172 942.671 505.474 946.316 508.079C957.645 515.891 966.303 522.467 972.293 527.805C978.283 533.144 981.993 539.003 983.426 545.383C983.426 565.956 980.626 585.227 975.027 603.196C969.428 621.034 962.072 637.18 952.957 651.633C943.973 666.086 934.077 678.456 923.27 688.743C912.462 699.029 901.59 706.907 890.652 712.375C879.845 717.844 870.079 720.579 861.355 720.579ZM941.324 743.821C939.371 743.821 938.395 743.365 938.395 742.454C938.395 740.631 939.957 736.269 943.082 729.368L950.309 711.008C950.96 709.316 952.001 707.558 953.434 705.735C954.866 703.782 956.298 702.805 957.73 702.805C958.251 702.805 958.837 703.131 959.488 703.782C960.009 704.303 961.116 704.563 962.809 704.563C968.408 704.563 977.978 700.852 991.52 693.43C1005.19 686.008 1019.38 677.024 1034.1 666.477C1048.94 655.8 1061.7 645.188 1072.38 634.641C1072.9 634.12 1073.16 633.599 1073.16 633.079C1073.16 630.995 1070.1 629.237 1063.98 627.805C1060.86 627.284 1051.68 627.024 1036.44 627.024C1017.82 627.024 1005 625.982 997.965 623.899C990.934 621.685 987.418 617.779 987.418 612.18C987.418 607.493 990.152 598.964 995.621 586.594L1001.09 572.922C1005.39 563.027 1013.52 552.219 1025.5 540.5C1037.61 528.782 1050.24 518.365 1063.39 509.25C1080.06 497.662 1091.26 491.868 1096.99 491.868C1098.55 491.868 1099.85 492.389 1100.89 493.43C1102.07 494.342 1103.37 495.579 1104.8 497.141C1106.75 500.006 1110.2 503.456 1115.15 507.493C1121.79 512.571 1125.11 515.891 1125.11 517.454C1125.11 518.235 1124.85 519.081 1124.33 519.993C1121.08 525.461 1116.45 529.368 1110.46 531.711C1104.48 533.925 1098.55 535.553 1092.69 536.594C1086.96 537.636 1082.8 539.003 1080.19 540.696C1065.09 552.415 1053.04 563.027 1044.06 572.532C1035.2 582.037 1030.78 587.896 1030.78 590.11C1030.78 590.761 1031.1 591.086 1031.75 591.086C1052.46 591.086 1065.74 591.217 1071.6 591.477C1077.46 591.737 1081.62 592.584 1084.1 594.016C1086.7 595.448 1089.37 597.792 1092.11 601.047C1095.23 604.693 1100.89 610.032 1109.1 617.063C1113.26 620.709 1115.35 624.941 1115.35 629.758C1115.35 642.649 1101.68 659.576 1074.33 680.54C1044.25 703.586 1017.17 719.862 993.082 729.368C968.082 739.003 950.829 743.821 941.324 743.821Z" fill="black"/>
<path d="M431.442 803.782C429.749 803.782 425.192 801.373 417.77 796.555L401.364 786.985C399.411 785.683 398.434 782.818 398.434 778.391C398.434 760.162 422.653 690.696 471.09 569.993L477.926 554.172C476.494 554.303 470.96 561.008 461.325 574.29C456.637 580.8 451.754 587.375 446.676 594.016C434.176 610.292 425.257 618.43 419.918 618.43C419.137 618.43 418.421 618.235 417.77 617.844C412.171 614.589 407.288 611.92 403.122 609.836C396.09 606.581 391.012 603.456 387.887 600.461C384.762 597.467 383.2 592.454 383.2 585.422C383.2 579.042 384.306 569.862 386.52 557.883C384.437 560.878 374.346 587.31 356.247 637.18C351.299 650.201 346.155 663.482 340.817 677.024C328.056 709.446 319.723 725.657 315.817 725.657C315.296 725.657 314.84 725.396 314.45 724.875C306.116 712.766 300.778 705.409 298.434 702.805C296.741 700.592 295.895 699.224 295.895 698.704C298.109 689.719 315.296 643.105 347.458 558.86C369.333 505.474 384.437 477.61 392.77 475.266C394.984 474.745 400.322 470.904 408.786 463.743C411.65 460.878 413.734 459.446 415.036 459.446C416.598 459.446 417.51 461.399 417.77 465.305C418.421 469.862 419.658 472.206 421.481 472.336C423.955 472.597 425.192 473.053 425.192 473.704C425.192 474.355 424.866 475.201 424.215 476.243C423.694 477.154 423.109 478.456 422.458 480.149C421.806 481.842 421.481 483.925 421.481 486.399C421.481 487.961 421.676 489.654 422.067 491.477C423.239 497.727 423.825 504.823 423.825 512.766C423.825 524.745 422.718 540.24 420.504 559.25C419.984 563.938 419.723 566.998 419.723 568.43C423.239 564.915 428.056 558.99 434.176 550.657C458.786 515.5 492.119 479.823 534.176 443.625C538.083 439.719 540.752 437.766 542.184 437.766C543.877 437.766 545.244 439.98 546.286 444.407C547.458 448.704 548.499 456.842 549.411 468.821C549.411 477.154 546.416 488.547 540.426 503C534.567 517.454 527.275 534.12 518.551 553C505.791 580.214 489.124 621.555 468.551 677.024C448.109 732.493 436.325 773.834 433.2 801.047C433.2 802.87 432.614 803.782 431.442 803.782ZM552.817 719.211C552.296 719.211 551.71 719.081 551.059 718.821C545.59 715.175 537.583 711.073 527.036 706.516C526.385 706.386 526.059 705.605 526.059 704.172C526.059 698.443 530.226 683.86 538.559 660.422C546.892 636.985 555.161 616.217 563.364 598.118C571.697 580.019 578.663 566.086 584.262 556.321C584.523 555.8 584.783 555.084 585.043 554.172C581.658 554.303 570.59 556.256 551.84 560.032L540.317 561.985C539.145 561.985 537.973 561.594 536.801 560.813C534.718 559.381 529.314 553.847 520.59 544.211C515.512 538.873 512.973 535.943 512.973 535.422C512.973 534.641 514.21 533.99 516.684 533.469C519.158 532.948 522.869 531.711 527.817 529.758C542.14 523.899 572.739 517.389 619.614 510.227C642.791 506.581 659.783 504.758 670.59 504.758C677.231 504.758 680.942 505.605 681.723 507.297C681.202 511.724 680.291 518.43 678.989 527.415C676.775 541.477 673.585 548.639 669.418 548.899C667.986 548.899 666.489 547.987 664.926 546.165C664.015 544.993 662.452 544.407 660.239 544.407C657.765 544.407 654.249 544.667 649.692 545.188C648.52 545.448 644.288 545.969 636.997 546.75C629.835 547.532 625.929 548.248 625.278 548.899C624.757 549.42 624.497 550.201 624.497 551.243C624.106 553.717 622.934 556.711 620.981 560.227C596.241 603.326 576.645 649.55 562.192 698.899C560.109 705.54 558.416 710.618 557.114 714.133C555.812 717.519 554.379 719.211 552.817 719.211ZM671.067 704.563C670.416 704.563 670.09 703.782 670.09 702.219C670.09 700.657 670.025 698.899 669.895 696.946C669.635 693.04 669.504 689.329 669.504 685.813C669.504 667.584 674.192 652.089 683.567 639.329C683.827 639.068 684.153 638.938 684.543 638.938C685.325 638.938 692.681 644.667 706.614 656.125C710.26 659.12 712.083 661.073 712.083 661.985C712.083 662.636 711.562 663.482 710.52 664.524C707.135 669.081 703.879 676.243 700.754 686.008C700.494 686.92 700.168 687.636 699.778 688.157C699.387 688.678 698.02 689.524 695.676 690.696C692.681 691.998 685.39 696.099 673.801 703C672.499 704.042 671.588 704.563 671.067 704.563ZM684.825 778.782H684.629C683.848 778.782 683.132 778.391 682.481 777.61C678.705 771.881 675.385 767.128 672.52 763.352C667.051 756.321 664.317 751.633 664.317 749.29V748.899C664.317 745.644 667.442 742.974 673.692 740.891C679.03 738.938 697.78 734.055 729.942 726.243V726.047C729.942 720.448 737.494 699.875 752.598 664.329C757.155 654.172 775.775 614.068 808.458 544.016C843.744 468.495 861.843 430.67 862.754 430.54C865.228 430.67 867.637 430.735 869.981 430.735H873.692C877.989 430.474 882.611 430.019 887.559 429.368C889.252 429.237 890.749 429.172 892.051 429.172C893.484 429.172 894.916 429.303 896.348 429.563C897.911 429.693 898.757 430.865 898.887 433.079V433.469C898.887 436.464 897.129 441.933 893.614 449.875C890.098 457.818 884.174 470.123 875.84 486.79C858.913 521.165 835.541 570.579 805.723 635.032C783.718 682.558 772.715 709.381 772.715 715.5V715.696C772.715 716.217 772.911 716.477 773.301 716.477H773.692L782.09 715.305C816.075 708.925 841.465 705.409 858.262 704.758C860.736 704.628 863.015 704.563 865.098 704.563C877.468 704.563 883.848 706.516 884.239 710.422L884.043 712.18C883.653 713.482 883.262 715.175 882.872 717.258C877.533 737.831 872.715 749.094 868.418 751.047C868.158 751.047 867.833 750.722 867.442 750.071C867.051 749.42 865.489 748.378 862.754 746.946C858.327 744.602 851.426 743.43 842.051 743.43C840.359 743.43 838.536 743.495 836.583 743.625C807.546 744.797 764.512 753.521 707.481 769.797C705.788 770.448 704.616 771.62 703.965 773.313C703.184 775.527 701.101 776.959 697.715 777.61L684.825 778.782ZM900.926 680.735C905.353 680.735 912.45 675.201 922.215 664.133C931.981 653.066 941.812 639.133 951.708 622.336C961.603 605.409 969.481 587.831 975.34 569.602C975.471 569.081 975.536 568.365 975.536 567.454C975.536 565.24 975.145 562.115 974.364 558.079C973.583 554.042 972.606 550.396 971.434 547.141C970.262 543.886 969.155 542.258 968.114 542.258L967.528 542.454C962.84 546.23 960.497 548.899 960.497 550.461C960.497 551.373 961.408 552.349 963.231 553.391C965.965 555.084 967.333 557.623 967.333 561.008C967.333 562.441 967.072 563.417 966.551 563.938C966.03 564.459 962.971 565.435 957.372 566.868C951.252 568.17 947.801 569.016 947.02 569.407C946.239 569.407 944.937 570.644 943.114 573.118C940.379 576.633 939.012 578.977 939.012 580.149C939.012 581.06 939.273 581.972 939.793 582.883C940.314 583.665 940.575 584.25 940.575 584.641C940.184 585.422 939.793 585.813 939.403 585.813L938.036 585.618C936.603 585.618 934.846 587.05 932.762 589.915C930.158 593.3 925.926 600.852 920.067 612.571C904.833 643.821 897.215 664.524 897.215 674.68C897.215 678.717 898.452 680.735 900.926 680.735ZM889.598 720.579C884.129 720.579 879.312 719.472 875.145 717.258C865.9 712.31 861.278 702.089 861.278 686.594C861.278 674.875 863.491 661.139 867.918 645.383C872.215 629.628 877.944 613.547 885.106 597.141C892.398 580.735 900.471 565.566 909.325 551.633C918.179 537.571 927.228 526.178 936.473 517.454C945.848 508.599 954.637 504.172 962.84 504.172C967.007 504.172 970.913 505.474 974.559 508.079C985.887 515.891 994.546 522.467 1000.54 527.805C1006.53 533.144 1010.24 539.003 1011.67 545.383C1011.67 565.956 1008.87 585.227 1003.27 603.196C997.671 621.034 990.314 637.18 981.2 651.633C972.215 666.086 962.319 678.456 951.512 688.743C940.705 699.029 929.833 706.907 918.895 712.375C908.088 717.844 898.322 720.579 889.598 720.579ZM969.567 743.821C967.614 743.821 966.637 743.365 966.637 742.454C966.637 740.631 968.2 736.269 971.325 729.368L978.551 711.008C979.202 709.316 980.244 707.558 981.676 705.735C983.109 703.782 984.541 702.805 985.973 702.805C986.494 702.805 987.08 703.131 987.731 703.782C988.252 704.303 989.359 704.563 991.051 704.563C996.65 704.563 1006.22 700.852 1019.76 693.43C1033.43 686.008 1047.63 677.024 1062.34 666.477C1077.18 655.8 1089.94 645.188 1100.62 634.641C1101.14 634.12 1101.4 633.599 1101.4 633.079C1101.4 630.995 1098.34 629.237 1092.22 627.805C1089.1 627.284 1079.92 627.024 1064.68 627.024C1046.06 627.024 1033.24 625.982 1026.21 623.899C1019.18 621.685 1015.66 617.779 1015.66 612.18C1015.66 607.493 1018.4 598.964 1023.86 586.594L1029.33 572.922C1033.63 563.027 1041.77 552.219 1053.75 540.5C1065.86 528.782 1078.49 518.365 1091.64 509.25C1108.3 497.662 1119.5 491.868 1125.23 491.868C1126.79 491.868 1128.1 492.389 1129.14 493.43C1130.31 494.342 1131.61 495.579 1133.04 497.141C1135 500.006 1138.45 503.456 1143.4 507.493C1150.04 512.571 1153.36 515.891 1153.36 517.454C1153.36 518.235 1153.1 519.081 1152.57 519.993C1149.32 525.461 1144.7 529.368 1138.71 531.711C1132.72 533.925 1126.79 535.553 1120.93 536.594C1115.2 537.636 1111.04 539.003 1108.43 540.696C1093.33 552.415 1081.29 563.027 1072.3 572.532C1063.45 582.037 1059.02 587.896 1059.02 590.11C1059.02 590.761 1059.35 591.086 1060 591.086C1080.7 591.086 1093.98 591.217 1099.84 591.477C1105.7 591.737 1109.87 592.584 1112.34 594.016C1114.94 595.448 1117.61 597.792 1120.35 601.047C1123.47 604.693 1129.14 610.032 1137.34 617.063C1141.51 620.709 1143.59 624.941 1143.59 629.758C1143.59 642.649 1129.92 659.576 1102.57 680.54C1072.5 703.586 1045.41 719.862 1021.32 729.368C996.325 739.003 979.072 743.821 969.567 743.821Z" fill="white"/>
</svg>
