<svg width="148" height="148" viewBox="0 0 148 148" fill="none" xmlns="http://www.w3.org/2000/svg">
<path d="M34.4563 132.044C32.041 129.629 30.8334 126.725 30.8334 123.333C30.8334 119.942 32.041 117.038 34.4563 114.623C36.8715 112.208 39.775 111 43.1667 111C46.5584 111 49.4618 112.208 51.8771 114.623C54.2924 117.038 55.5 119.942 55.5 123.333C55.5 126.725 54.2924 129.629 51.8771 132.044C49.4618 134.459 46.5584 135.667 43.1667 135.667C39.775 135.667 36.8715 134.459 34.4563 132.044ZM96.1229 132.044C93.7077 129.629 92.5 126.725 92.5 123.333C92.5 119.942 93.7077 117.038 96.1229 114.623C98.5382 112.208 101.442 111 104.833 111C108.225 111 111.128 112.208 113.544 114.623C115.959 117.038 117.167 119.942 117.167 123.333C117.167 126.725 115.959 129.629 113.544 132.044C111.128 134.459 108.225 135.667 104.833 135.667C101.442 135.667 98.5382 134.459 96.1229 132.044ZM37.925 37.0002L52.725 67.8335H95.8917L112.85 37.0002H37.925ZM32.0667 24.6668H123.025C125.389 24.6668 127.188 25.7203 128.421 27.8272C129.654 29.9342 129.706 32.0668 128.575 34.2252L106.683 73.6918C105.553 75.7474 104.037 77.3404 102.135 78.471C100.234 79.6016 98.1528 80.1668 95.8917 80.1668H49.95L43.1667 92.5002H117.167V104.833H43.1667C38.5417 104.833 35.0472 102.804 32.6834 98.7439C30.3195 94.6842 30.2167 90.6502 32.375 86.6418L40.7 71.5335L18.5 24.6668H6.16669V12.3335H26.2084L32.0667 24.6668Z" fill="#E3E3E3"/>
</svg>
